<svg id="svg" version="1.1" xmlns="http://www.w3.org/2000/svg" xmlns:xlink="http://www.w3.org/1999/xlink" width="400" height="244.07252440725244" viewBox="0, 0, 400,244.07252440725244"><g id="svgg"><path id="path0" d="M231.912 14.299 C 232.338 14.486,233.162 15.083,233.743 15.626 C 235.121 16.915,235.730 17.060,236.979 16.398 C 238.417 15.637,239.481 15.794,241.514 17.069 C 242.876 17.923,247.043 20.024,247.374 20.024 C 247.596 20.024,248.036 20.299,248.352 20.635 C 248.667 20.971,249.082 21.245,249.274 21.245 C 249.551 21.245,252.257 22.761,254.945 24.422 C 255.147 24.546,255.916 25.003,256.654 25.436 C 258.523 26.532,264.338 30.304,265.812 31.375 C 266.484 31.863,268.022 32.965,269.231 33.823 C 271.698 35.574,274.509 37.737,278.208 40.727 C 279.583 41.839,281.087 43.048,281.549 43.413 C 288.007 48.519,298.585 58.642,304.781 65.650 C 306.404 67.485,308.231 69.536,308.840 70.208 C 309.794 71.259,312.658 74.972,315.055 78.266 C 316.232 79.885,319.902 85.464,319.902 85.635 C 319.902 85.768,321.509 88.523,322.369 89.866 C 322.498 90.067,323.048 91.166,323.591 92.308 C 324.134 93.449,324.845 94.893,325.171 95.515 C 325.497 96.138,325.764 96.797,325.765 96.981 C 325.765 97.164,325.914 97.597,326.094 97.942 C 327.871 101.347,328.651 110.398,327.347 112.473 C 327.172 112.752,326.863 113.535,326.662 114.212 C 326.013 116.398,325.092 117.631,323.260 118.765 C 322.891 118.994,322.589 119.325,322.589 119.502 C 322.589 119.678,320.887 121.566,318.806 123.696 C 314.053 128.564,314.493 128.483,309.881 125.336 C 308.651 124.496,307.562 123.810,307.462 123.810 C 307.362 123.810,307.090 123.600,306.858 123.343 C 306.626 123.087,306.087 122.737,305.660 122.566 C 305.233 122.395,304.618 122.052,304.292 121.804 C 303.967 121.556,303.202 121.132,302.592 120.863 C 301.982 120.593,301.308 120.213,301.093 120.019 C 300.494 119.477,293.624 115.399,289.866 113.355 C 288.993 112.880,288.004 112.306,287.668 112.079 C 286.111 111.029,279.027 107.600,275.351 106.118 C 269.267 103.665,262.781 103.362,258.974 105.353 C 258.571 105.563,258.144 105.736,258.025 105.737 C 257.441 105.741,253.822 108.688,252.369 110.342 C 250.107 112.916,247.774 114.982,245.112 116.767 C 243.872 117.598,235.404 123.891,226.295 130.751 C 217.186 137.611,206.743 145.476,203.087 148.230 C 199.431 150.983,195.362 154.136,194.045 155.236 C 191.420 157.430,189.281 158.796,186.028 160.358 C 181.649 162.460,178.872 165.088,177.038 168.864 C 174.093 174.926,174.497 182.486,178.673 199.512 C 179.414 202.534,180.351 206.050,180.754 207.326 C 181.158 208.602,181.802 210.910,182.185 212.454 C 182.568 213.999,183.386 216.848,184.001 218.787 C 186.048 225.231,186.125 224.991,181.197 227.491 C 179.652 228.274,177.894 229.201,177.289 229.549 C 176.685 229.898,175.806 230.332,175.336 230.515 C 174.866 230.698,174.203 231.102,173.863 231.413 C 173.524 231.724,172.815 232.127,172.290 232.309 C 171.764 232.491,171.291 232.769,171.239 232.926 C 171.166 233.143,194.297 233.211,268.370 233.211 C 364.276 233.211,368.700 233.179,369.231 232.480 C 369.298 232.392,370.317 232.015,371.496 231.643 C 372.675 231.270,373.773 230.838,373.938 230.682 C 374.102 230.525,374.512 230.262,374.847 230.096 C 376.078 229.490,376.955 228.919,377.661 228.264 C 378.058 227.896,378.482 227.595,378.603 227.595 C 378.724 227.595,379.533 226.853,380.402 225.946 C 382.567 223.686,382.992 223.181,383.380 222.409 C 383.565 222.042,383.925 221.519,384.179 221.246 C 384.674 220.714,385.830 218.381,385.834 217.905 C 385.835 217.747,385.988 217.466,386.174 217.280 C 386.359 217.095,386.771 216.015,387.089 214.882 L 387.668 212.821 387.742 124.664 C 387.796 59.956,387.742 36.021,387.539 34.676 C 387.188 32.348,386.601 30.278,386.171 29.848 C 385.987 29.664,385.836 29.370,385.836 29.195 C 385.836 28.746,384.687 26.198,384.437 26.093 C 384.324 26.046,383.944 25.513,383.594 24.908 C 382.679 23.329,379.022 19.292,378.507 19.292 C 378.407 19.292,378.198 19.137,378.041 18.948 C 377.884 18.759,377.376 18.424,376.912 18.204 C 376.448 17.984,376.068 17.707,376.068 17.589 C 376.068 17.333,373.054 15.873,372.527 15.873 C 372.326 15.873,372.161 15.767,372.161 15.638 C 372.161 15.335,370.124 14.719,367.643 14.272 C 364.754 13.751,230.722 13.778,231.912 14.299 M273.079 144.209 L 275.580 144.583 277.172 146.161 L 278.764 147.738 279.902 146.600 C 280.960 145.542,281.173 145.440,282.950 145.149 C 285.533 144.725,329.003 144.683,332.112 145.101 L 334.188 145.380 336.203 147.336 L 338.217 149.293 340.232 147.332 L 342.247 145.371 344.149 145.091 C 346.755 144.707,358.313 144.748,360.764 145.150 L 362.676 145.463 364.987 147.774 L 367.298 150.085 367.653 152.271 C 368.183 155.535,368.173 206.890,367.642 210.130 L 367.282 212.324 365.021 214.570 L 362.759 216.816 360.127 217.199 C 356.628 217.709,348.519 217.714,344.914 217.209 L 342.247 216.835 340.410 215.011 C 338.181 212.798,338.499 212.798,336.365 215.016 L 334.606 216.844 331.965 217.237 C 329.842 217.552,328.074 217.603,322.964 217.497 C 319.467 217.424,316.496 217.371,316.361 217.379 C 311.792 217.653,286.001 217.537,283.964 217.233 L 281.456 216.860 280.008 215.412 L 278.561 213.965 277.148 215.405 L 275.734 216.844 273.278 217.213 C 269.679 217.754,232.515 217.759,228.922 217.220 L 226.506 216.857 224.122 214.473 L 221.738 212.088 221.374 209.524 C 220.827 205.667,220.826 155.919,221.373 151.996 L 221.746 149.328 224.125 146.944 L 226.505 144.560 228.820 144.223 C 232.419 143.700,269.598 143.687,273.079 144.209 " stroke="none" fill="#eb0404" fill-rule="evenodd"></path><path id="path1" d="M230.830 13.349 C 230.405 13.520,230.448 13.919,230.891 13.919 C 231.093 13.919,231.258 13.755,231.258 13.553 C 231.258 13.352,231.230 13.195,231.197 13.206 C 231.163 13.217,230.998 13.281,230.830 13.349 M231.502 13.645 C 231.502 13.762,231.788 13.858,232.138 13.858 C 232.588 13.858,232.677 13.797,232.444 13.648 C 232.012 13.375,231.502 13.373,231.502 13.645 M231.211 14.291 C 231.133 14.370,230.314 14.492,229.393 14.563 C 228.471 14.634,227.277 14.810,226.740 14.954 C 226.203 15.099,225.598 15.245,225.397 15.280 C 225.195 15.315,224.426 15.525,223.687 15.747 C 222.949 15.969,222.015 16.241,221.612 16.350 C 218.042 17.321,212.654 20.638,209.184 24.000 C 206.238 26.855,206.181 27.012,207.322 29.082 C 207.722 29.808,208.052 30.574,208.054 30.782 C 208.059 31.162,206.615 32.723,206.260 32.723 C 206.157 32.723,205.723 32.980,205.295 33.294 C 204.868 33.608,203.639 34.307,202.564 34.847 C 201.490 35.386,200.187 36.116,199.669 36.468 C 199.150 36.820,198.106 37.387,197.349 37.728 C 194.567 38.980,191.991 40.413,189.011 42.365 C 187.332 43.464,185.615 44.574,185.196 44.831 C 184.777 45.089,182.524 46.590,180.190 48.168 C 162.445 60.163,135.413 81.836,131.416 87.273 L 130.360 88.710 130.759 90.298 C 131.557 93.474,134.627 96.835,140.533 100.996 C 141.471 101.657,143.238 103.022,144.460 104.029 C 147.083 106.192,154.604 112.307,156.241 113.609 C 161.573 117.849,164.410 117.435,172.776 111.195 C 175.326 109.294,179.405 106.272,181.843 104.480 C 184.280 102.687,188.236 99.735,190.634 97.918 C 193.032 96.102,195.324 94.406,195.726 94.151 C 196.129 93.895,198.877 91.804,201.832 89.504 C 204.786 87.204,208.744 84.164,210.626 82.747 C 216.030 78.680,217.225 76.979,217.202 73.382 C 217.187 70.926,217.549 71.962,212.587 60.195 C 211.285 57.106,209.510 52.722,208.643 50.453 C 205.726 42.817,203.728 39.379,201.311 37.840 C 200.215 37.142,199.775 36.742,200.043 36.687 C 200.468 36.598,202.087 37.335,203.221 38.133 C 205.077 39.440,210.475 49.035,213.505 56.410 C 215.652 61.637,216.852 64.498,217.671 66.337 C 221.111 74.066,219.674 77.682,210.501 84.385 C 208.284 86.004,204.383 88.856,201.832 90.722 C 199.280 92.587,196.796 94.449,196.312 94.859 C 195.829 95.269,193.492 97.033,191.121 98.779 C 188.749 100.525,184.474 103.738,181.621 105.919 C 167.082 117.034,167.113 117.013,163.862 117.845 C 159.722 118.905,158.250 118.189,148.804 110.517 C 135.523 99.732,130.662 94.486,130.027 90.252 C 129.806 88.780,129.804 88.780,127.387 91.349 C 125.439 93.417,122.407 95.971,121.898 95.971 C 121.774 95.971,120.996 95.366,120.168 94.628 C 118.423 93.070,118.584 93.107,116.918 93.893 C 109.135 97.564,101.864 105.862,99.370 113.919 C 99.180 114.534,99.283 114.938,100.014 116.437 L 100.884 118.222 100.256 119.246 C 99.911 119.808,99.418 120.543,99.159 120.879 C 98.716 121.456,98.710 121.577,99.051 123.077 C 99.250 123.950,99.635 125.818,99.907 127.228 C 100.178 128.639,100.545 130.342,100.721 131.013 C 100.897 131.685,101.392 133.773,101.821 135.653 C 103.142 141.443,105.147 148.169,107.570 154.945 C 108.050 156.288,108.611 157.862,108.816 158.442 C 109.021 159.023,109.630 160.561,110.170 161.861 C 110.709 163.161,111.238 164.499,111.345 164.835 C 111.452 165.171,112.250 167.039,113.119 168.987 C 113.989 170.934,114.964 173.123,115.286 173.850 C 116.554 176.709,123.769 190.922,124.618 192.235 C 125.113 193.001,125.519 193.709,125.519 193.808 C 125.519 193.999,126.893 196.185,129.794 200.611 C 130.763 202.088,131.688 203.551,131.850 203.861 C 132.012 204.171,132.815 205.325,133.634 206.425 C 138.566 213.052,138.666 213.174,143.516 218.493 C 146.083 221.309,148.808 224.065,149.292 224.336 C 149.517 224.462,150.222 225.019,150.858 225.575 C 154.362 228.632,156.363 229.986,159.341 231.315 C 160.415 231.795,161.926 232.316,162.698 232.472 C 164.215 232.781,164.583 233.211,163.329 233.211 C 162.120 233.211,162.667 233.457,164.254 233.626 C 166.045 233.818,166.140 233.818,169.083 233.625 C 171.834 233.445,172.492 233.211,170.248 233.211 C 168.571 233.211,168.130 232.734,169.780 232.705 C 171.138 232.681,171.973 232.521,172.266 232.227 C 172.396 232.097,172.682 231.990,172.900 231.990 C 173.118 231.990,173.555 231.716,173.871 231.380 C 174.186 231.044,174.540 230.769,174.658 230.769 C 174.912 230.769,175.543 230.457,180.342 227.963 C 186.271 224.880,186.085 225.347,184.001 218.787 C 183.386 216.848,182.568 213.999,182.185 212.454 C 181.802 210.910,181.158 208.602,180.754 207.326 C 178.816 201.200,176.066 188.558,175.313 182.317 C 174.038 171.746,177.627 164.391,186.028 160.358 C 189.281 158.796,191.420 157.430,194.045 155.236 C 195.362 154.136,199.431 150.983,203.087 148.230 C 206.743 145.476,217.186 137.611,226.295 130.751 C 235.404 123.891,243.872 117.598,245.112 116.767 C 247.774 114.982,250.107 112.916,252.369 110.342 C 253.822 108.688,257.441 105.741,258.025 105.737 C 258.144 105.736,258.571 105.563,258.974 105.353 C 265.157 102.120,274.716 104.560,289.591 113.167 C 291.119 114.051,292.399 114.774,292.436 114.774 C 292.604 114.774,300.758 119.716,301.098 120.024 C 301.310 120.215,301.982 120.593,302.592 120.863 C 303.202 121.132,303.967 121.556,304.292 121.804 C 304.618 122.052,305.233 122.395,305.660 122.566 C 306.087 122.737,306.626 123.087,306.858 123.343 C 307.090 123.600,307.362 123.810,307.462 123.810 C 307.562 123.810,308.651 124.496,309.881 125.336 C 314.473 128.470,314.087 128.532,318.625 123.919 C 320.600 121.911,322.382 119.942,322.585 119.543 C 322.789 119.144,323.209 118.690,323.520 118.536 C 324.979 117.809,326.019 116.379,326.662 114.212 C 326.863 113.535,327.172 112.752,327.347 112.473 C 329.086 109.706,327.856 101.527,324.664 94.628 C 324.477 94.225,323.973 93.098,323.543 92.124 C 323.112 91.151,322.597 90.218,322.397 90.052 C 322.197 89.886,321.830 89.309,321.582 88.770 C 320.585 86.603,316.677 80.360,316.178 80.138 C 316.078 80.094,315.995 79.952,315.995 79.823 C 315.995 79.694,315.884 79.456,315.749 79.294 C 315.613 79.132,314.846 78.120,314.044 77.045 C 313.242 75.971,312.443 74.927,312.268 74.725 C 312.093 74.524,311.637 73.892,311.253 73.321 C 310.870 72.750,310.461 72.283,310.345 72.283 C 310.229 72.283,310.134 72.169,310.134 72.028 C 310.134 71.888,309.759 71.366,309.299 70.868 C 308.840 70.371,308.212 69.634,307.904 69.231 C 303.640 63.656,288.583 48.918,281.584 43.468 C 281.153 43.132,280.065 42.252,279.167 41.512 C 276.850 39.603,273.037 36.630,272.905 36.630 C 272.844 36.630,272.523 36.383,272.192 36.081 C 271.862 35.778,270.583 34.817,269.352 33.944 C 268.121 33.071,266.584 31.950,265.937 31.454 C 265.291 30.958,264.393 30.350,263.944 30.103 C 263.494 29.857,262.133 28.992,260.920 28.183 C 259.706 27.373,258.552 26.633,258.355 26.539 C 258.159 26.445,257.705 26.177,257.348 25.944 C 256.129 25.146,251.498 22.428,250.107 21.693 C 249.343 21.289,248.114 20.626,247.375 20.220 C 245.149 18.996,242.306 17.582,242.071 17.582 C 241.950 17.582,241.621 17.369,241.341 17.108 C 240.039 15.895,238.256 15.719,236.585 16.638 C 235.543 17.211,235.466 17.175,233.015 14.957 C 232.681 14.655,232.322 14.408,232.219 14.408 C 232.115 14.408,231.878 14.349,231.692 14.278 C 231.506 14.207,231.290 14.213,231.211 14.291 M235.198 31.431 C 238.202 32.389,240.554 36.087,240.170 39.250 C 239.372 45.824,231.543 48.397,227.107 43.544 C 221.840 37.781,227.682 29.035,235.198 31.431 M230.924 32.975 C 227.067 34.130,225.621 39.161,228.260 42.245 C 230.997 45.442,235.913 44.882,237.731 41.165 C 239.996 36.537,235.817 31.509,230.924 32.975 M258.833 34.695 C 261.503 35.872,263.248 38.601,263.248 41.602 C 263.248 48.327,255.286 51.665,250.551 46.926 C 244.699 41.067,251.270 31.362,258.833 34.695 M254.781 35.930 C 250.183 36.741,248.445 42.353,251.764 45.672 C 254.072 47.980,257.528 47.980,259.836 45.672 C 263.833 41.675,260.343 34.950,254.781 35.930 M232.652 54.464 C 237.349 56.776,238.272 62.876,234.486 66.589 C 231.736 69.286,226.887 69.285,224.110 66.587 C 217.921 60.572,224.910 50.652,232.652 54.464 M228.262 55.465 C 223.482 56.541,221.896 61.654,225.270 65.117 C 230.306 70.286,238.224 63.324,233.839 57.582 C 232.596 55.954,230.174 55.034,228.262 55.465 M254.396 57.270 C 259.930 58.913,261.533 66.476,257.133 70.178 C 252.152 74.370,244.689 70.959,244.689 64.490 C 244.689 59.345,249.452 55.801,254.396 57.270 M250.792 58.836 C 246.164 60.244,244.869 66.060,248.533 68.984 C 253.316 72.799,259.817 67.729,257.386 62.080 C 256.298 59.550,253.297 58.074,250.792 58.836 M127.481 116.789 C 127.945 117.310,131.895 123.415,132.102 123.932 C 132.435 124.762,131.063 132.297,130.502 132.721 C 129.912 133.168,128.637 133.150,124.671 132.641 L 121.502 132.234 118.639 128.938 C 115.046 124.800,115.069 125.247,118.244 121.326 L 120.127 119.000 123.250 117.746 C 126.567 116.414,127.050 116.305,127.481 116.789 M123.565 119.412 C 121.136 120.416,120.897 120.615,118.600 123.539 L 117.453 124.999 119.775 127.686 C 121.053 129.164,122.236 130.460,122.404 130.567 C 122.629 130.709,129.362 131.619,129.438 131.518 C 129.444 131.509,129.699 129.918,130.005 127.982 L 130.560 124.462 128.589 121.452 C 126.345 118.026,126.632 118.143,123.565 119.412 M142.120 118.681 C 142.230 118.681,143.503 119.666,144.948 120.870 L 147.577 123.058 148.786 126.238 C 150.354 130.365,150.496 130.033,145.994 132.807 C 141.750 135.424,142.519 135.305,136.894 134.208 C 133.692 133.584,133.334 133.350,133.333 131.883 C 133.332 130.426,134.116 124.942,134.405 124.385 C 134.826 123.574,141.188 118.400,141.579 118.550 C 141.767 118.622,142.010 118.681,142.120 118.681 M138.700 122.714 C 135.568 125.315,135.782 124.909,135.205 129.334 C 134.791 132.511,134.412 132.053,138.021 132.742 C 142.044 133.509,141.642 133.587,145.120 131.369 L 148.199 129.404 147.584 127.767 C 146.222 124.145,146.098 123.955,143.952 122.197 C 142.826 121.275,141.814 120.491,141.704 120.454 C 141.593 120.417,140.242 121.434,138.700 122.714 M125.144 134.713 C 129.309 135.447,130.020 135.827,129.963 137.286 C 129.891 139.147,128.920 144.932,128.635 145.195 C 125.827 147.799,121.970 150.692,121.473 150.567 C 120.920 150.428,118.245 148.381,116.453 146.727 C 115.135 145.509,112.908 139.579,113.483 138.818 C 113.655 138.591,115.870 137.173,119.644 134.875 C 121.233 133.908,120.669 133.924,125.144 134.713 M118.193 137.720 C 116.514 138.783,115.140 139.741,115.140 139.850 C 115.140 139.960,115.569 141.181,116.092 142.566 L 117.044 145.083 119.186 146.900 C 121.791 149.111,121.193 149.165,124.544 146.418 L 127.350 144.117 127.862 140.670 C 128.174 138.558,128.283 137.166,128.140 137.078 C 127.913 136.938,121.971 135.784,121.490 135.787 C 121.355 135.787,119.872 136.657,118.193 137.720 M137.689 136.388 C 139.390 136.591,141.008 136.807,141.285 136.870 C 141.885 137.004,147.497 143.421,147.497 143.972 C 147.497 144.584,147.049 145.273,145.030 147.770 L 143.130 150.118 140.046 151.386 C 138.334 152.090,136.684 152.621,136.337 152.579 C 135.547 152.483,130.794 145.259,130.985 144.444 C 131.048 144.176,131.340 142.418,131.633 140.537 C 132.400 135.619,132.228 135.737,137.689 136.388 M133.797 137.790 C 133.783 137.824,133.529 139.366,133.232 141.217 L 132.693 144.583 133.209 145.490 C 133.493 145.990,134.408 147.412,135.242 148.652 L 136.758 150.906 138.037 150.405 C 141.764 148.946,142.109 148.717,143.863 146.537 C 144.787 145.389,145.543 144.330,145.543 144.184 C 145.543 143.477,140.873 138.478,140.100 138.357 C 137.279 137.915,133.871 137.608,133.797 137.790 M231.013 180.708 L 231.013 207.570 251.038 207.570 L 271.062 207.570 271.062 203.787 L 271.062 200.004 256.838 199.941 L 242.613 199.878 242.613 192.063 L 242.613 184.249 251.099 184.185 L 259.585 184.121 259.585 180.342 L 259.585 176.563 251.099 176.499 L 242.613 176.435 242.613 168.864 L 242.613 161.294 256.838 161.231 L 271.062 161.168 271.062 157.507 L 271.062 153.846 251.038 153.846 L 231.013 153.846 231.013 180.708 M285.879 154.740 C 285.788 154.830,285.714 156.479,285.714 158.405 L 285.714 161.905 282.906 161.905 L 280.098 161.905 280.098 165.690 L 280.098 169.475 277.287 169.475 L 274.476 169.475 274.540 181.136 L 274.603 192.796 277.473 192.865 L 280.342 192.934 280.342 196.833 L 280.342 200.733 283.150 200.733 L 285.958 200.733 285.958 204.151 L 285.958 207.570 300.122 207.570 L 314.286 207.570 314.286 192.552 L 314.286 177.534 305.861 177.534 L 297.436 177.534 297.436 181.441 L 297.436 185.348 300.248 185.348 L 303.060 185.348 302.995 192.613 L 302.930 199.878 297.314 199.878 L 291.697 199.878 291.630 196.154 L 291.562 192.430 288.760 192.430 L 285.958 192.430 285.958 180.960 L 285.958 169.490 288.828 169.422 L 291.697 169.353 291.765 165.631 L 291.832 161.910 302.998 161.846 L 314.164 161.783 314.164 158.242 L 314.164 154.701 300.104 154.638 C 292.371 154.603,285.970 154.649,285.879 154.740 M318.604 154.737 C 318.512 154.829,318.437 166.754,318.437 181.237 L 318.437 207.570 324.176 207.570 L 329.915 207.570 329.915 196.337 L 329.915 185.104 332.601 185.104 L 335.287 185.104 335.287 188.767 L 335.287 192.430 338.217 192.430 L 341.148 192.430 341.148 188.759 L 341.148 185.088 344.017 185.157 L 346.886 185.226 346.950 196.398 L 347.013 207.570 352.506 207.570 L 357.998 207.570 357.998 181.074 L 357.998 154.579 352.381 154.579 L 346.764 154.579 346.764 158.364 L 346.764 162.149 343.834 162.149 L 340.904 162.149 340.904 165.934 L 340.904 169.719 338.095 169.719 L 335.287 169.719 335.287 165.812 L 335.287 161.905 332.485 161.905 L 329.683 161.905 329.616 158.303 L 329.548 154.701 324.160 154.635 C 321.197 154.599,318.697 154.645,318.604 154.737 M168.498 232.967 C 168.498 233.101,168.168 233.211,167.766 233.211 C 167.363 233.211,167.033 233.101,167.033 232.967 C 167.033 232.833,167.363 232.723,167.766 232.723 C 168.168 232.723,168.498 232.833,168.498 232.967 " stroke="none" fill="#fafafb" fill-rule="evenodd"></path><path id="path2" d="M228.820 144.223 L 226.505 144.560 224.125 146.944 L 221.746 149.328 221.373 151.996 C 220.826 155.919,220.827 205.667,221.374 209.524 L 221.738 212.088 224.122 214.473 L 226.506 216.857 228.922 217.220 C 232.515 217.759,269.679 217.754,273.278 217.213 L 275.734 216.844 277.148 215.405 L 278.561 213.965 280.008 215.412 L 281.456 216.860 283.964 217.233 C 286.001 217.537,311.792 217.653,316.361 217.379 C 316.496 217.371,319.467 217.424,322.964 217.497 C 328.074 217.603,329.842 217.552,331.965 217.237 L 334.606 216.844 336.365 215.016 C 338.499 212.798,338.181 212.798,340.410 215.011 L 342.247 216.835 344.914 217.209 C 348.519 217.714,356.628 217.709,360.127 217.199 L 362.759 216.816 365.021 214.570 L 367.282 212.324 367.642 210.130 C 368.173 206.890,368.183 155.535,367.653 152.271 L 367.298 150.085 364.987 147.774 L 362.676 145.463 360.764 145.150 C 358.313 144.748,346.755 144.707,344.149 145.091 L 342.247 145.371 340.232 147.332 L 338.217 149.293 336.203 147.336 L 334.188 145.380 332.112 145.101 C 329.003 144.683,285.533 144.725,282.950 145.149 C 281.173 145.440,280.960 145.542,279.902 146.600 L 278.764 147.738 277.172 146.161 L 275.580 144.583 273.079 144.209 C 269.598 143.687,232.419 143.700,228.820 144.223 M271.252 157.570 L 271.184 161.294 256.960 161.357 L 242.735 161.420 242.735 168.866 L 242.735 176.313 251.288 176.313 L 259.841 176.313 259.774 180.281 L 259.707 184.249 251.221 184.313 L 242.735 184.378 242.735 192.065 L 242.735 199.752 256.960 199.815 L 271.184 199.878 271.184 203.785 L 271.184 207.692 251.099 207.755 L 231.013 207.817 231.013 180.832 L 231.013 153.846 251.166 153.846 L 271.319 153.846 271.252 157.570 M314.286 158.242 L 314.286 161.905 303.053 161.905 L 291.819 161.905 291.819 165.690 L 291.819 169.475 288.889 169.475 L 285.958 169.475 285.958 180.830 L 285.958 192.186 288.767 192.186 L 291.575 192.186 291.575 195.971 L 291.575 199.756 297.192 199.756 L 302.808 199.756 302.808 192.560 L 302.808 185.364 300.061 185.295 L 297.314 185.226 297.247 181.380 L 297.179 177.534 305.734 177.534 L 314.289 177.534 314.227 192.613 L 314.164 207.692 300.061 207.755 L 285.958 207.818 285.958 204.275 L 285.958 200.733 283.150 200.733 L 280.342 200.733 280.342 196.825 L 280.342 192.918 277.411 192.918 L 274.481 192.918 274.481 181.205 L 274.481 169.491 277.106 169.422 L 279.731 169.353 279.799 165.637 L 279.866 161.920 282.729 161.851 L 285.592 161.783 285.660 158.181 L 285.727 154.579 300.007 154.579 L 314.286 154.579 314.286 158.242 M329.670 158.242 L 329.670 161.905 332.601 161.905 L 335.531 161.905 335.531 165.820 L 335.531 169.736 338.156 169.666 L 340.781 169.597 340.849 165.873 L 340.916 162.149 343.718 162.149 L 346.520 162.149 346.520 158.364 L 346.520 154.579 352.382 154.579 L 358.244 154.579 358.182 181.136 L 358.120 207.692 352.503 207.692 L 346.886 207.692 346.823 196.398 L 346.759 185.104 343.954 185.104 L 341.148 185.104 341.148 188.889 L 341.148 192.674 338.217 192.674 L 335.287 192.674 335.287 188.889 L 335.287 185.104 332.725 185.104 L 330.164 185.104 330.100 196.398 L 330.037 207.692 324.664 207.761 C 321.709 207.799,319.045 207.770,318.742 207.696 L 318.193 207.561 318.193 181.233 C 318.193 166.752,318.266 154.831,318.356 154.742 C 318.445 154.652,321.028 154.579,324.094 154.579 L 329.670 154.579 329.670 158.242 " stroke="none" fill="#040404" fill-rule="evenodd"></path><path id="path3" d="M32.967 14.283 C 30.620 14.753,28.571 15.388,28.571 15.646 C 28.571 15.771,28.434 15.873,28.266 15.873 C 27.706 15.874,25.015 17.263,24.311 17.915 C 23.929 18.269,23.478 18.559,23.308 18.559 C 22.937 18.559,18.315 23.011,18.315 23.369 C 18.315 23.508,18.058 23.883,17.745 24.204 C 17.431 24.524,16.854 25.387,16.463 26.121 C 16.071 26.855,15.624 27.594,15.469 27.763 C 15.315 27.932,14.883 29.035,14.511 30.214 C 14.139 31.392,13.762 32.411,13.674 32.479 C 12.505 33.366,12.542 214.408,13.711 214.408 C 13.826 214.408,13.919 214.564,13.919 214.755 C 13.919 215.278,15.343 219.358,15.582 219.518 C 15.696 219.595,16.107 220.248,16.496 220.969 C 16.885 221.689,17.343 222.333,17.515 222.399 C 17.686 222.465,17.827 222.624,17.827 222.753 C 17.827 223.599,22.555 228.327,23.401 228.327 C 23.530 228.327,23.689 228.468,23.755 228.639 C 23.821 228.811,24.464 229.269,25.185 229.658 C 25.906 230.047,26.559 230.458,26.636 230.572 C 26.796 230.811,30.876 232.234,31.399 232.234 C 31.590 232.234,31.746 232.328,31.746 232.443 C 31.746 233.165,35.761 233.211,98.887 233.211 C 133.950 233.211,162.637 233.120,162.637 233.009 C 162.637 232.898,162.115 232.686,161.477 232.538 C 158.612 231.873,153.884 228.988,150.673 225.944 C 150.070 225.372,149.411 224.851,149.208 224.786 C 148.833 224.667,142.714 218.372,141.781 217.147 C 141.500 216.777,140.765 215.962,140.147 215.335 C 138.754 213.921,132.230 205.285,131.053 203.297 C 130.576 202.491,129.807 201.282,129.345 200.611 C 128.461 199.327,125.790 194.957,124.120 192.063 C 123.195 190.461,121.646 187.567,119.742 183.883 C 118.970 182.390,116.372 176.945,115.139 174.237 C 114.833 173.565,114.177 172.137,113.681 171.062 C 113.185 169.988,112.508 168.449,112.177 167.643 C 111.846 166.838,111.425 165.849,111.241 165.446 C 109.545 161.724,105.504 150.455,104.060 145.421 C 102.884 141.320,102.101 138.357,101.351 135.165 C 100.909 133.284,100.452 131.427,100.335 131.038 C 100.218 130.649,100.122 130.068,100.122 129.747 C 100.122 129.426,99.796 127.821,99.397 126.181 C 98.208 121.286,98.209 121.442,99.380 119.896 C 100.503 118.412,100.549 117.768,99.621 116.465 C 98.914 115.473,98.766 114.278,99.238 113.366 C 99.452 112.952,99.803 112.084,100.019 111.435 C 100.994 108.503,104.370 103.517,107.635 100.188 C 109.793 97.987,113.909 94.750,114.550 94.750 C 114.692 94.750,115.268 94.437,115.829 94.056 C 116.390 93.674,117.070 93.302,117.338 93.229 C 117.607 93.156,118.005 93.022,118.223 92.932 C 118.497 92.818,119.148 93.222,120.326 94.239 L 122.032 95.711 123.348 94.732 C 124.072 94.193,125.427 92.905,126.359 91.870 C 127.291 90.835,128.610 89.522,129.290 88.953 C 129.969 88.384,130.800 87.529,131.136 87.053 C 131.961 85.884,134.412 83.390,136.035 82.069 C 136.765 81.474,137.912 80.464,138.584 79.824 C 139.255 79.184,140.647 77.967,141.675 77.120 C 142.704 76.273,144.902 74.449,146.559 73.067 C 150.602 69.694,153.282 67.522,155.922 65.474 C 164.882 58.525,172.220 53.151,179.205 48.421 C 180.636 47.452,183.057 45.803,184.584 44.758 C 186.112 43.713,187.715 42.692,188.146 42.491 C 188.577 42.289,189.817 41.493,190.900 40.720 C 191.984 39.948,193.031 39.316,193.228 39.316 C 193.424 39.316,193.858 39.101,194.192 38.839 C 194.526 38.576,195.681 37.973,196.759 37.499 C 197.837 37.025,199.293 36.251,199.994 35.779 C 200.696 35.307,201.403 34.921,201.564 34.921 C 201.726 34.921,202.231 34.646,202.686 34.310 C 203.141 33.974,203.700 33.700,203.928 33.700 C 204.264 33.700,206.797 32.036,207.657 31.250 C 207.773 31.145,207.467 30.239,206.979 29.238 C 206.223 27.687,206.129 27.318,206.346 26.749 C 207.004 25.018,212.571 20.225,215.995 18.441 C 216.532 18.161,217.192 17.809,217.460 17.658 C 218.345 17.162,221.093 16.046,221.971 15.826 C 222.914 15.589,222.846 15.608,224.420 15.140 C 225.024 14.960,225.629 14.798,225.763 14.780 C 225.897 14.761,226.172 14.676,226.374 14.590 C 226.575 14.503,227.234 14.329,227.839 14.202 C 228.535 14.056,193.353 13.971,131.746 13.969 C 52.926 13.966,34.254 14.025,32.967 14.283 M231.380 31.232 C 226.375 32.512,223.887 37.403,226.071 41.665 C 230.118 49.562,241.896 45.193,239.697 36.611 C 238.805 33.132,234.597 30.410,231.380 31.232 M234.975 33.059 C 237.336 34.121,238.584 35.989,238.584 38.462 C 238.584 44.961,229.995 46.804,227.201 40.904 C 224.904 36.053,230.062 30.848,234.975 33.059 M253.794 34.538 C 251.364 35.127,249.108 37.588,248.592 40.216 C 247.358 46.483,254.310 51.204,259.697 47.758 C 266.800 43.214,262.034 32.541,253.794 34.538 M258.066 36.031 C 262.897 38.044,263.017 44.822,258.262 47.036 C 253.462 49.271,248.167 44.238,250.195 39.369 C 251.424 36.420,255.178 34.828,258.066 36.031 M202.981 38.718 C 204.526 40.365,208.025 47.421,209.272 51.404 C 209.440 51.941,209.938 53.205,210.378 54.212 C 210.818 55.220,211.587 57.033,212.086 58.242 C 212.586 59.451,213.907 62.582,215.021 65.201 C 218.880 74.270,218.388 77.233,212.260 81.851 C 210.957 82.833,207.017 85.858,203.506 88.573 C 199.994 91.288,196.377 94.029,195.467 94.665 C 194.558 95.301,192.321 96.958,190.497 98.347 C 184.464 102.940,179.881 106.352,177.778 107.817 C 176.636 108.612,174.768 109.984,173.626 110.865 C 164.201 118.139,161.425 118.428,154.852 112.820 C 153.829 111.947,152.332 110.708,151.526 110.067 C 149.015 108.070,147.260 106.656,145.082 104.874 C 143.925 103.928,141.496 102.040,139.683 100.678 C 136.098 97.984,131.969 93.983,131.171 92.430 C 130.895 91.893,130.664 91.585,130.658 91.747 C 130.581 93.854,137.871 101.337,147.741 109.280 C 150.077 111.160,152.819 113.391,153.833 114.238 C 159.762 119.188,164.124 119.020,171.184 113.570 C 172.595 112.481,176.485 109.477,179.830 106.894 C 183.175 104.311,186.324 101.923,186.829 101.587 C 188.159 100.702,194.799 95.735,195.828 94.856 C 196.309 94.444,198.281 92.960,200.210 91.559 C 218.312 78.405,218.968 77.737,218.892 72.527 C 218.853 69.880,218.621 69.116,215.991 63.004 C 215.095 60.922,213.807 57.900,213.128 56.288 C 209.624 47.964,205.044 39.921,202.930 38.377 L 202.076 37.753 202.981 38.718 M227.519 53.978 C 222.102 55.335,220.172 62.324,224.119 66.288 C 227.165 69.348,231.706 69.251,234.644 66.063 C 239.508 60.787,234.467 52.236,227.519 53.978 M232.517 56.075 C 237.443 59.612,235.268 67.033,229.304 67.033 C 222.781 67.033,221.075 57.985,227.119 55.447 C 228.419 54.901,231.358 55.243,232.517 56.075 M250.046 57.461 C 243.811 59.227,242.983 68.137,248.789 70.988 C 251.763 72.449,255.745 71.698,257.704 69.307 C 262.372 63.610,257.104 55.462,250.046 57.461 M254.306 58.907 C 257.078 59.730,258.939 63.748,257.861 66.582 C 256.408 70.403,250.921 71.678,248.094 68.852 C 243.407 64.164,247.882 56.999,254.306 58.907 M124.908 117.298 C 124.237 117.609,122.890 118.175,121.916 118.555 C 120.598 119.070,119.979 119.472,119.494 120.124 C 119.136 120.607,118.266 121.717,117.560 122.593 C 115.742 124.847,115.687 125.257,117.005 126.688 C 117.591 127.324,118.840 128.754,119.780 129.865 C 120.720 130.976,121.709 131.931,121.978 131.989 C 122.406 132.080,126.207 132.631,128.707 132.964 C 130.438 133.195,130.821 132.515,131.494 128.024 C 132.073 124.156,132.082 124.202,130.200 121.340 C 129.282 119.945,128.237 118.336,127.877 117.766 C 127.107 116.545,126.679 116.478,124.908 117.298 M128.663 121.068 C 129.788 122.777,130.708 124.417,130.708 124.713 C 130.708 125.872,129.820 131.171,129.569 131.502 C 129.245 131.931,122.455 131.119,121.958 130.592 C 121.010 129.585,117.629 125.578,117.451 125.251 C 117.149 124.695,120.450 120.541,121.612 120.016 C 124.554 118.685,126.160 117.998,126.374 117.980 C 126.508 117.969,127.538 119.358,128.663 121.068 M140.618 119.242 C 140.305 119.562,138.870 120.783,137.429 121.954 C 134.251 124.538,134.689 123.734,133.945 128.345 C 133.178 133.095,133.241 133.277,135.801 133.727 C 136.660 133.878,138.463 134.199,139.807 134.441 L 142.252 134.881 143.714 133.943 C 145.333 132.904,146.207 132.351,148.291 131.045 C 150.011 129.967,150.008 130.062,148.447 126.129 C 147.425 123.554,147.033 122.840,146.369 122.344 C 145.919 122.009,144.807 121.116,143.899 120.360 C 141.825 118.635,141.365 118.479,140.618 119.242 M144.170 122.074 L 146.411 124.002 147.472 126.733 C 148.056 128.235,148.438 129.549,148.321 129.653 C 147.470 130.408,141.995 133.578,141.543 133.578 C 141.232 133.578,139.945 133.359,138.682 133.093 C 137.419 132.826,136.111 132.605,135.775 132.601 C 134.489 132.585,134.465 132.460,135.048 128.788 C 135.343 126.923,135.621 125.268,135.665 125.111 C 135.779 124.703,141.204 120.178,141.600 120.161 C 141.781 120.153,142.938 121.014,144.170 122.074 M117.827 136.286 C 116.081 137.387,114.405 138.440,114.103 138.625 C 113.495 138.997,113.381 139.881,113.831 140.723 C 113.984 141.009,114.519 142.329,115.020 143.656 L 115.931 146.069 118.344 148.035 C 121.869 150.908,121.293 150.918,124.959 147.922 C 128.974 144.640,128.643 145.178,129.236 140.971 C 130.025 135.376,130.658 135.937,121.856 134.428 C 121.092 134.298,120.662 134.496,117.827 136.286 M125.179 136.142 C 129.047 136.898,128.778 136.505,128.187 140.542 C 127.614 144.456,127.848 144.072,124.219 147.044 L 121.577 149.209 119.824 147.772 C 116.973 145.434,116.877 145.309,115.798 142.524 C 115.235 141.071,114.776 139.810,114.778 139.722 C 114.780 139.633,115.675 139.011,116.768 138.339 C 117.861 137.668,119.260 136.768,119.878 136.340 C 121.252 135.387,121.308 135.385,125.179 136.142 M132.990 136.583 C 132.663 136.822,132.379 137.903,131.853 140.906 L 131.152 144.911 132.594 147.120 C 133.387 148.334,134.455 150.013,134.967 150.850 C 136.067 152.650,136.299 152.701,138.665 151.673 C 139.560 151.284,140.875 150.762,141.586 150.513 C 142.898 150.054,146.628 145.905,147.119 144.359 C 147.292 143.814,145.929 142.011,142.594 138.372 L 141.476 137.152 138.198 136.715 C 134.237 136.187,133.555 136.170,132.990 136.583 M138.044 137.831 C 141.074 138.209,140.795 138.029,143.870 141.586 C 145.316 143.259,145.980 144.208,145.855 144.422 C 145.751 144.599,144.901 145.687,143.967 146.839 L 142.268 148.935 139.481 150.089 L 136.694 151.243 136.296 150.714 C 136.077 150.423,135.101 148.941,134.127 147.421 L 132.356 144.657 132.939 141.215 C 133.620 137.189,133.598 137.239,134.620 137.387 C 135.054 137.450,136.595 137.649,138.044 137.831 " stroke="none" fill="#042cb4" fill-rule="evenodd"></path><path id="path4" d="M227.806 14.237 C 227.219 14.345,226.575 14.503,226.374 14.590 C 226.172 14.676,225.897 14.761,225.763 14.780 C 225.629 14.798,225.024 14.960,224.420 15.140 C 222.846 15.608,222.914 15.589,221.971 15.826 C 221.093 16.046,218.345 17.162,217.460 17.658 C 217.192 17.809,216.532 18.161,215.995 18.441 C 212.571 20.225,207.004 25.018,206.346 26.749 C 206.129 27.318,206.223 27.687,206.979 29.238 C 207.467 30.239,207.773 31.145,207.657 31.250 C 206.797 32.036,204.264 33.700,203.928 33.700 C 203.700 33.700,203.141 33.974,202.686 34.310 C 202.231 34.646,201.726 34.921,201.564 34.921 C 201.403 34.921,200.696 35.307,199.994 35.779 C 199.293 36.251,197.837 37.025,196.759 37.499 C 195.681 37.973,194.526 38.576,194.192 38.839 C 193.858 39.101,193.424 39.316,193.228 39.316 C 193.031 39.316,191.984 39.948,190.900 40.720 C 189.817 41.493,188.577 42.289,188.146 42.491 C 187.715 42.692,186.112 43.713,184.584 44.758 C 183.057 45.803,180.636 47.452,179.205 48.421 C 172.220 53.151,164.882 58.525,155.922 65.474 C 153.282 67.522,150.602 69.694,146.559 73.067 C 144.902 74.449,142.704 76.273,141.675 77.120 C 140.647 77.967,139.255 79.184,138.584 79.824 C 137.912 80.464,136.765 81.474,136.035 82.069 C 134.412 83.390,131.961 85.884,131.136 87.053 C 130.800 87.529,129.969 88.384,129.290 88.953 C 128.610 89.522,127.291 90.835,126.359 91.870 C 125.427 92.905,124.072 94.193,123.348 94.732 L 122.032 95.711 120.326 94.239 C 119.148 93.222,118.497 92.818,118.223 92.932 C 118.005 93.022,117.607 93.156,117.338 93.229 C 117.070 93.302,116.390 93.674,115.829 94.056 C 115.268 94.437,114.692 94.750,114.550 94.750 C 113.909 94.750,109.793 97.987,107.635 100.188 C 104.370 103.517,100.994 108.503,100.019 111.435 C 99.803 112.084,99.452 112.952,99.238 113.366 C 98.766 114.278,98.914 115.473,99.621 116.465 C 100.549 117.768,100.503 118.412,99.380 119.896 C 98.209 121.442,98.208 121.286,99.397 126.181 C 99.796 127.821,100.122 129.426,100.122 129.747 C 100.122 130.068,100.218 130.649,100.335 131.038 C 100.452 131.427,100.909 133.284,101.351 135.165 C 102.101 138.357,102.884 141.320,104.060 145.421 C 105.504 150.455,109.545 161.724,111.241 165.446 C 111.425 165.849,111.846 166.838,112.177 167.643 C 112.508 168.449,113.185 169.988,113.681 171.062 C 114.177 172.137,114.833 173.565,115.139 174.237 C 116.372 176.945,118.970 182.390,119.742 183.883 C 121.646 187.567,123.195 190.461,124.120 192.063 C 125.790 194.957,128.461 199.327,129.345 200.611 C 129.807 201.282,130.576 202.491,131.053 203.297 C 132.230 205.285,138.754 213.921,140.147 215.335 C 140.765 215.962,141.500 216.777,141.781 217.147 C 142.714 218.372,148.833 224.667,149.208 224.786 C 149.411 224.851,150.070 225.372,150.673 225.944 C 153.884 228.988,158.612 231.873,161.477 232.538 C 162.115 232.686,162.637 232.898,162.637 233.009 C 162.637 233.120,162.967 233.211,163.370 233.211 C 164.588 233.211,164.193 232.776,162.698 232.472 C 161.926 232.316,160.415 231.795,159.341 231.315 C 156.363 229.986,154.362 228.632,150.858 225.575 C 150.222 225.019,149.517 224.462,149.292 224.336 C 148.808 224.065,146.083 221.309,143.516 218.493 C 138.666 213.174,138.566 213.052,133.634 206.425 C 132.815 205.325,132.012 204.171,131.850 203.861 C 131.688 203.551,130.763 202.088,129.794 200.611 C 126.893 196.185,125.519 193.999,125.519 193.808 C 125.519 193.709,125.113 193.001,124.618 192.235 C 123.769 190.922,116.554 176.709,115.286 173.850 C 114.964 173.123,113.989 170.934,113.119 168.987 C 112.250 167.039,111.452 165.171,111.345 164.835 C 111.238 164.499,110.709 163.161,110.170 161.861 C 109.630 160.561,109.021 159.023,108.816 158.442 C 108.611 157.862,108.050 156.288,107.570 154.945 C 105.147 148.169,103.142 141.443,101.821 135.653 C 101.392 133.773,100.897 131.685,100.721 131.013 C 100.545 130.342,100.178 128.639,99.907 127.228 C 99.635 125.818,99.250 123.950,99.051 123.077 C 98.710 121.577,98.716 121.456,99.159 120.879 C 99.418 120.543,99.911 119.808,100.256 119.246 L 100.884 118.222 100.014 116.437 C 99.283 114.938,99.180 114.534,99.370 113.919 C 101.864 105.862,109.135 97.564,116.918 93.893 C 118.584 93.107,118.423 93.070,120.168 94.628 C 120.996 95.366,121.774 95.971,121.898 95.971 C 122.407 95.971,125.439 93.417,127.387 91.349 C 129.804 88.780,129.806 88.780,130.027 90.252 C 130.662 94.486,135.523 99.732,148.804 110.517 C 158.250 118.189,159.722 118.905,163.862 117.845 C 167.113 117.013,167.082 117.034,181.621 105.919 C 184.474 103.738,188.749 100.525,191.121 98.779 C 193.492 97.033,195.829 95.269,196.312 94.859 C 196.796 94.449,199.280 92.587,201.832 90.722 C 204.383 88.856,208.284 86.004,210.501 84.385 C 219.674 77.682,221.111 74.066,217.671 66.337 C 216.852 64.498,215.652 61.637,213.505 56.410 C 208.756 44.850,203.812 37.411,200.409 36.705 C 199.477 36.512,199.813 36.214,202.442 34.901 C 203.584 34.331,204.868 33.608,205.295 33.294 C 205.723 32.980,206.168 32.723,206.285 32.723 C 206.634 32.723,208.059 31.141,208.054 30.758 C 208.052 30.563,207.722 29.808,207.322 29.082 C 206.181 27.012,206.238 26.855,209.184 24.000 C 212.654 20.638,218.042 17.321,221.612 16.350 C 222.015 16.241,222.949 15.969,223.687 15.747 C 224.426 15.525,225.195 15.315,225.397 15.280 C 225.598 15.245,226.203 15.098,226.740 14.953 C 227.527 14.740,228.991 14.561,231.074 14.420 C 231.175 14.413,231.258 14.310,231.258 14.191 C 231.258 13.934,229.315 13.960,227.806 14.237 M229.426 31.668 C 227.606 32.640,225.371 35.198,225.410 36.264 C 225.415 36.398,225.690 35.989,226.020 35.355 C 226.825 33.808,228.142 32.536,229.649 31.851 C 230.332 31.540,230.726 31.284,230.525 31.281 C 230.324 31.279,229.829 31.453,229.426 31.668 M235.653 31.873 C 236.470 32.244,237.462 32.985,238.185 33.763 C 238.858 34.487,239.151 34.710,238.861 34.278 C 238.153 33.224,236.784 32.061,235.736 31.623 C 234.281 31.015,234.213 31.218,235.653 31.873 M231.206 32.679 C 230.976 32.770,231.597 32.845,232.587 32.845 C 233.576 32.845,234.259 32.764,234.104 32.666 C 233.756 32.444,231.775 32.453,231.206 32.679 M228.771 33.943 C 226.935 35.457,226.089 38.538,226.993 40.415 C 227.260 40.969,227.302 40.999,227.165 40.537 C 226.451 38.126,227.309 35.288,229.164 33.923 C 229.697 33.532,230.026 33.211,229.896 33.211 C 229.766 33.211,229.260 33.541,228.771 33.943 M236.295 34.029 C 237.370 34.966,238.318 36.681,238.373 37.787 C 238.401 38.369,238.420 38.386,238.512 37.908 C 238.752 36.663,237.233 34.150,235.796 33.413 C 235.516 33.269,235.740 33.546,236.295 34.029 M254.007 34.233 C 252.471 34.576,252.906 34.726,254.506 34.405 C 255.503 34.205,256.195 34.206,257.146 34.410 C 257.855 34.562,258.482 34.640,258.538 34.583 C 258.972 34.149,255.561 33.886,254.007 34.233 M250.762 36.073 C 250.084 36.707,249.372 37.558,249.180 37.965 C 248.830 38.703,248.831 38.704,249.247 38.095 C 249.476 37.759,250.258 36.908,250.984 36.203 C 252.625 34.608,252.442 34.501,250.762 36.073 M260.616 36.203 C 261.342 36.908,262.123 37.759,262.353 38.095 C 262.769 38.704,262.769 38.703,262.420 37.965 C 262.094 37.276,259.797 34.921,259.451 34.921 C 259.366 34.921,259.890 35.498,260.616 36.203 M253.358 36.118 C 250.174 37.598,248.442 43.357,250.752 44.785 C 250.891 44.871,250.827 44.585,250.609 44.149 C 248.938 40.799,251.040 36.648,254.781 35.908 C 255.641 35.738,255.685 35.703,255.067 35.685 C 254.664 35.674,253.895 35.868,253.358 36.118 M256.819 35.908 C 260.560 36.648,262.661 40.799,260.990 44.149 C 260.773 44.585,260.709 44.871,260.847 44.785 C 263.842 42.935,260.289 35.530,256.479 35.680 C 255.956 35.701,256.034 35.753,256.819 35.908 M201.294 37.834 C 202.578 38.685,203.322 39.383,203.829 40.215 C 205.360 42.729,207.133 46.500,208.643 50.453 C 209.510 52.722,211.285 57.106,212.587 60.195 C 217.549 71.962,217.187 70.926,217.202 73.382 C 217.225 76.979,216.030 78.680,210.626 82.747 C 208.744 84.164,204.786 87.204,201.832 89.504 C 198.877 91.804,196.129 93.895,195.726 94.151 C 195.324 94.406,193.032 96.102,190.634 97.918 C 188.236 99.735,184.280 102.687,181.843 104.480 C 179.405 106.272,175.326 109.294,172.776 111.195 C 164.410 117.435,161.573 117.849,156.241 113.609 C 154.604 112.307,147.083 106.192,144.460 104.029 C 143.238 103.022,141.471 101.657,140.533 100.996 C 134.627 96.835,131.557 93.474,130.759 90.298 L 130.360 88.710 131.416 87.273 C 135.413 81.836,162.445 60.163,180.190 48.168 C 182.524 46.590,184.777 45.089,185.196 44.831 C 185.615 44.574,187.332 43.459,189.011 42.354 C 190.690 41.248,193.217 39.774,194.628 39.079 C 196.038 38.383,197.686 37.551,198.291 37.229 C 198.895 36.907,199.409 36.641,199.433 36.637 C 199.456 36.633,200.294 37.172,201.294 37.834 M239.915 38.617 C 239.906 40.505,239.922 40.572,240.125 39.505 C 240.250 38.848,240.253 37.967,240.134 37.462 C 239.962 36.733,239.923 36.939,239.915 38.617 M204.814 40.441 C 207.090 43.626,210.672 50.454,213.128 56.288 C 213.807 57.900,215.095 60.922,215.991 63.004 C 218.621 69.116,218.853 69.880,218.892 72.527 C 218.968 77.737,218.312 78.405,200.210 91.559 C 198.281 92.960,196.309 94.444,195.828 94.856 C 194.799 95.735,188.159 100.702,186.829 101.587 C 186.324 101.923,183.175 104.311,179.830 106.894 C 176.485 109.477,172.595 112.481,171.184 113.570 C 164.124 119.020,159.762 119.188,153.833 114.238 C 152.819 113.391,150.077 111.160,147.741 109.280 C 137.871 101.337,130.581 93.854,130.658 91.747 C 130.664 91.585,130.895 91.893,131.171 92.430 C 131.969 93.983,136.098 97.984,139.683 100.678 C 141.496 102.040,143.925 103.928,145.082 104.874 C 147.260 106.656,149.015 108.070,151.526 110.067 C 152.332 110.708,153.829 111.947,154.852 112.820 C 161.425 118.428,164.201 118.139,173.626 110.865 C 174.768 109.984,176.636 108.612,177.778 107.817 C 179.881 106.352,184.464 102.940,190.497 98.347 C 192.321 96.958,194.558 95.301,195.467 94.665 C 196.377 94.029,199.994 91.288,203.506 88.573 C 207.017 85.858,210.957 82.833,212.260 81.851 C 218.388 77.233,218.880 74.270,215.021 65.201 C 213.907 62.582,212.586 59.451,212.086 58.242 C 211.587 57.033,210.818 55.220,210.378 54.212 C 209.938 53.205,209.440 51.941,209.272 51.404 C 208.025 47.421,204.526 40.365,202.981 38.718 L 202.076 37.753 202.930 38.377 C 203.400 38.720,204.248 39.649,204.814 40.441 M238.368 39.336 C 238.352 39.682,238.079 40.481,237.760 41.110 C 237.441 41.740,237.326 42.134,237.503 41.987 C 237.968 41.601,238.650 39.693,238.513 39.160 C 238.428 38.829,238.388 38.877,238.368 39.336 M225.409 40.606 C 225.354 41.496,227.501 44.370,228.678 44.983 C 228.955 45.127,228.655 44.776,228.010 44.203 C 227.366 43.630,226.519 42.543,226.129 41.788 C 225.739 41.033,225.415 40.501,225.409 40.606 M227.350 41.357 C 227.350 41.971,230.342 44.464,230.678 44.129 C 230.737 44.070,230.448 43.882,230.036 43.712 C 229.624 43.541,228.851 42.906,228.319 42.301 C 227.786 41.696,227.350 41.271,227.350 41.357 M237.851 43.535 C 236.813 44.694,236.686 44.911,237.292 44.486 C 237.985 44.001,238.608 43.277,239.169 42.308 C 239.487 41.758,239.213 42.012,237.851 43.535 M235.664 43.370 C 234.931 43.827,234.414 44.200,234.514 44.200 C 234.869 44.200,236.546 43.253,236.859 42.875 C 237.274 42.376,237.235 42.392,235.664 43.370 M248.840 44.577 C 248.840 45.499,252.419 49.006,252.885 48.540 C 252.946 48.478,252.456 48.092,251.796 47.681 C 251.082 47.238,250.239 46.407,249.718 45.632 C 249.235 44.915,248.840 44.440,248.840 44.577 M261.829 45.704 C 261.356 46.419,260.520 47.236,259.812 47.676 C 259.147 48.090,258.650 48.475,258.707 48.532 C 259.045 48.870,261.490 46.808,262.294 45.507 C 263.112 44.182,262.728 44.345,261.829 45.704 M230.031 45.563 C 231.203 46.106,233.127 46.263,234.396 45.920 C 235.835 45.531,235.588 45.406,234.001 45.721 C 232.800 45.959,231.421 45.830,229.670 45.314 C 229.402 45.235,229.564 45.347,230.031 45.563 M251.527 45.749 C 251.862 46.131,252.357 46.556,252.625 46.695 C 253.139 46.959,253.124 46.944,251.771 45.786 L 250.918 45.055 251.527 45.749 M259.463 46.073 C 258.926 46.555,258.706 46.835,258.974 46.696 C 259.427 46.461,260.776 45.164,260.543 45.187 C 260.486 45.193,260.000 45.591,259.463 46.073 M253.846 47.244 C 254.249 47.438,255.128 47.597,255.800 47.597 C 256.471 47.597,257.350 47.438,257.753 47.244 C 258.307 46.977,258.337 46.935,257.875 47.072 C 257.540 47.171,256.606 47.253,255.800 47.253 C 254.994 47.253,254.060 47.171,253.724 47.072 C 253.262 46.935,253.292 46.977,253.846 47.244 M227.872 53.691 C 227.554 53.780,228.199 53.853,229.304 53.853 C 230.409 53.853,231.054 53.780,230.736 53.691 C 230.419 53.601,229.774 53.529,229.304 53.529 C 228.834 53.529,228.189 53.601,227.872 53.691 M224.233 55.583 L 223.321 56.466 224.359 55.685 C 224.930 55.255,225.397 54.858,225.397 54.802 C 225.397 54.551,225.081 54.764,224.233 55.583 M233.211 54.786 C 233.211 54.851,233.678 55.268,234.249 55.714 C 234.820 56.159,235.132 56.328,234.942 56.089 C 234.566 55.615,233.211 54.595,233.211 54.786 M226.952 55.541 C 226.532 55.724,226.108 56.003,226.010 56.162 C 225.905 56.332,226.139 56.291,226.583 56.062 C 226.996 55.848,227.750 55.575,228.258 55.456 C 229.122 55.252,229.134 55.237,228.449 55.223 C 228.046 55.215,227.373 55.358,226.952 55.541 M230.350 55.456 C 230.858 55.575,231.612 55.848,232.025 56.062 C 232.471 56.293,232.704 56.333,232.598 56.161 C 232.335 55.736,230.887 55.186,230.106 55.214 C 229.515 55.235,229.547 55.267,230.350 55.456 M224.862 57.082 C 224.117 57.880,223.592 58.838,223.790 59.036 C 223.868 59.114,223.932 59.058,223.932 58.912 C 223.932 58.765,224.316 58.143,224.785 57.528 C 225.752 56.260,225.781 56.097,224.862 57.082 M233.777 57.483 C 234.272 58.141,234.676 58.791,234.676 58.928 C 234.676 59.065,234.744 59.110,234.826 59.028 C 235.022 58.832,234.111 57.365,233.419 56.760 C 233.122 56.501,233.283 56.826,233.777 57.483 M222.848 57.208 C 221.283 59.596,221.409 62.966,223.158 65.508 C 223.873 66.548,225.900 68.144,226.477 68.122 C 226.621 68.116,226.376 67.917,225.931 67.680 C 222.500 65.851,221.032 61.376,222.734 57.936 C 223.405 56.581,223.450 56.288,222.848 57.208 M235.788 57.753 C 236.554 59.324,236.768 61.510,236.317 63.178 C 236.128 63.878,236.053 64.402,236.150 64.342 C 237.254 63.659,236.916 58.625,235.664 57.106 C 235.286 56.647,235.311 56.776,235.788 57.753 M250.061 57.184 C 249.591 57.317,249.116 57.513,249.006 57.619 C 248.895 57.726,249.390 57.655,250.104 57.462 C 251.800 57.005,253.975 57.214,255.556 57.985 C 256.533 58.462,256.662 58.487,256.203 58.109 C 254.953 57.078,252.006 56.635,250.061 57.184 M247.585 58.474 C 246.746 59.044,245.177 61.099,245.177 61.628 C 245.177 61.766,245.490 61.386,245.871 60.783 C 246.253 60.181,247.042 59.280,247.625 58.782 C 248.851 57.733,248.837 57.623,247.585 58.474 M257.595 59.524 C 258.041 60.095,258.458 60.562,258.523 60.562 C 258.714 60.562,257.694 59.207,257.220 58.831 C 256.981 58.641,257.150 58.953,257.595 59.524 M248.932 59.460 C 248.379 59.792,247.733 60.368,247.496 60.740 C 247.120 61.333,247.185 61.306,248.015 60.529 C 248.536 60.040,249.292 59.468,249.695 59.256 C 250.098 59.045,250.317 58.868,250.183 58.864 C 250.049 58.860,249.486 59.128,248.932 59.460 M255.339 59.629 C 256.556 60.548,256.809 60.645,255.931 59.856 C 255.466 59.438,254.984 59.096,254.860 59.096 C 254.736 59.096,254.952 59.336,255.339 59.629 M257.379 62.056 C 257.646 62.644,257.880 63.400,257.898 63.736 C 257.920 64.123,257.972 64.197,258.040 63.938 C 258.195 63.353,257.694 61.650,257.261 61.291 C 256.987 61.064,257.018 61.259,257.379 62.056 M246.508 62.385 C 245.931 63.765,246.264 67.399,246.967 67.399 C 247.025 67.399,246.926 66.987,246.746 66.484 C 246.567 65.980,246.419 65.073,246.419 64.469 C 246.419 63.864,246.567 62.958,246.746 62.454 C 247.157 61.302,246.981 61.252,246.508 62.385 M259.452 64.469 C 259.460 66.313,259.485 66.429,259.680 65.506 C 259.811 64.883,259.808 64.055,259.671 63.431 C 259.468 62.505,259.444 62.617,259.452 64.469 M234.549 63.509 C 234.454 63.808,233.922 64.548,233.367 65.155 C 232.552 66.046,232.488 66.174,233.038 65.818 C 233.731 65.369,235.087 63.333,234.851 63.096 C 234.779 63.025,234.644 63.211,234.549 63.509 M224.263 64.389 C 224.480 64.814,225.016 65.413,225.454 65.719 C 226.239 66.267,226.005 65.952,223.981 63.736 C 223.920 63.669,224.047 63.963,224.263 64.389 M234.710 65.953 C 234.124 66.623,233.245 67.383,232.757 67.641 C 232.268 67.899,231.987 68.115,232.132 68.121 C 232.583 68.140,234.653 66.653,235.124 65.972 C 236.246 64.350,236.117 64.344,234.710 65.953 M257.909 65.272 C 257.890 65.647,257.640 66.415,257.352 66.980 C 256.964 67.739,256.929 67.922,257.217 67.683 C 257.722 67.264,258.184 65.852,258.048 65.145 C 257.957 64.671,257.937 64.690,257.909 65.272 M226.374 66.342 C 226.374 67.045,230.008 67.378,231.388 66.801 C 232.521 66.328,232.470 66.152,231.319 66.563 C 230.815 66.742,229.908 66.889,229.304 66.889 C 228.700 66.889,227.793 66.742,227.289 66.563 C 226.786 66.383,226.374 66.283,226.374 66.342 M245.187 67.296 C 245.174 67.647,246.548 69.707,247.072 70.123 C 247.301 70.304,247.148 70.012,246.733 69.475 C 246.318 68.938,245.803 68.168,245.588 67.766 C 245.373 67.363,245.192 67.151,245.187 67.296 M256.518 68.400 C 256.426 68.547,255.849 68.987,255.234 69.377 C 254.064 70.119,254.010 70.330,255.140 69.742 C 255.789 69.405,257.127 68.132,256.834 68.132 C 256.751 68.132,256.609 68.253,256.518 68.400 M248.342 69.119 C 248.807 69.516,249.290 69.841,249.414 69.841 C 249.538 69.841,249.225 69.512,248.718 69.109 C 247.530 68.165,247.235 68.172,248.342 69.119 M257.519 69.536 C 256.647 70.602,256.635 70.637,257.366 69.963 C 258.066 69.319,258.767 68.376,258.546 68.376 C 258.503 68.376,258.040 68.898,257.519 69.536 M309.179 70.725 C 309.503 71.144,309.817 71.443,309.877 71.389 C 309.937 71.335,309.672 70.993,309.288 70.628 L 308.589 69.963 309.179 70.725 M247.887 70.725 C 248.981 72.043,253.307 72.399,255.372 71.340 C 256.778 70.620,256.691 70.473,255.250 71.133 C 253.505 71.934,250.624 71.891,248.902 71.039 C 248.199 70.691,247.742 70.550,247.887 70.725 M126.687 116.657 C 127.008 116.718,127.518 117.197,127.888 117.784 C 128.242 118.345,129.293 119.957,130.225 121.368 L 131.918 123.932 131.793 125.885 L 131.668 127.839 131.982 126.129 C 132.361 124.070,132.419 124.228,129.829 120.269 C 127.341 116.464,127.350 116.475,126.669 116.517 C 126.132 116.550,126.132 116.550,126.687 116.657 M122.494 118.033 C 120.143 119.033,120.035 119.114,118.388 121.129 C 115.068 125.191,115.059 124.740,118.549 128.809 C 121.867 132.677,121.328 132.286,123.570 132.448 L 125.397 132.580 123.496 132.268 C 122.451 132.097,121.454 131.800,121.280 131.607 C 121.106 131.415,120.263 130.433,119.405 129.426 C 118.548 128.419,117.415 127.136,116.889 126.577 C 115.689 125.299,115.771 124.812,117.560 122.593 C 118.266 121.717,119.135 120.608,119.491 120.128 C 120.000 119.442,120.625 119.062,122.402 118.355 C 124.615 117.474,125.641 116.966,125.153 116.993 C 125.018 117.000,123.822 117.468,122.494 118.033 M124.298 118.815 C 123.291 119.263,122.082 119.803,121.612 120.016 C 120.518 120.511,117.144 124.700,117.429 125.209 C 117.969 126.176,122.243 130.890,122.573 130.884 C 122.893 130.878,122.886 130.836,122.530 130.629 C 121.327 129.928,117.433 124.977,117.771 124.576 C 117.956 124.356,118.783 123.336,119.609 122.310 C 121.019 120.558,121.240 120.391,123.254 119.546 C 126.711 118.096,126.319 117.957,128.589 121.439 L 130.560 124.462 130.005 127.982 C 129.699 129.918,129.444 131.509,129.438 131.517 C 129.431 131.526,128.136 131.385,126.558 131.206 C 124.981 131.026,123.525 130.913,123.323 130.954 C 123.120 130.996,124.383 131.211,126.129 131.433 C 128.848 131.779,129.342 131.787,129.569 131.494 C 129.819 131.171,130.708 125.876,130.708 124.713 C 130.708 124.101,126.747 117.949,126.374 117.980 C 126.239 117.991,125.305 118.367,124.298 118.815 M137.957 121.141 C 136.153 122.637,134.554 124.097,134.404 124.385 C 134.101 124.966,133.442 129.616,133.635 129.809 C 133.702 129.876,133.831 129.350,133.921 128.641 C 134.012 127.931,134.204 126.655,134.349 125.805 L 134.611 124.259 137.199 122.142 C 138.622 120.977,140.110 119.721,140.507 119.349 C 141.424 118.490,141.777 118.596,143.899 120.360 C 144.807 121.116,145.919 122.009,146.369 122.344 C 147.033 122.840,147.425 123.554,148.447 126.129 C 150.008 130.062,150.011 129.967,148.291 131.045 C 146.207 132.351,145.333 132.904,143.714 133.943 L 142.252 134.881 139.807 134.441 C 138.463 134.199,136.666 133.878,135.815 133.728 C 134.694 133.531,134.138 133.296,133.800 132.879 C 133.276 132.231,133.153 132.506,133.658 133.196 C 133.889 133.512,134.828 133.805,136.894 134.208 C 142.519 135.305,141.750 135.424,145.994 132.807 C 150.496 130.033,150.354 130.365,148.786 126.238 L 147.577 123.058 144.948 120.870 C 143.503 119.666,142.230 118.681,142.120 118.681 C 142.010 118.681,141.767 118.622,141.579 118.550 C 141.379 118.474,139.887 119.540,137.957 121.141 M138.462 122.545 C 136.119 124.524,135.646 125.039,135.610 125.646 L 135.567 126.374 135.732 125.706 C 135.898 125.035,141.271 120.310,141.704 120.454 C 141.814 120.491,142.826 121.275,143.952 122.197 C 146.098 123.955,146.222 124.145,147.584 127.767 L 148.199 129.404 145.101 131.387 C 141.690 133.570,142.290 133.419,138.855 132.962 C 138.437 132.907,138.645 133.012,139.316 133.196 C 141.553 133.809,141.865 133.729,145.108 131.710 C 146.758 130.682,148.203 129.757,148.321 129.653 C 148.438 129.549,148.056 128.235,147.472 126.733 L 146.411 124.002 144.170 122.074 C 141.430 119.717,141.848 119.683,138.462 122.545 M134.818 130.258 C 134.578 131.748,134.574 132.218,134.802 132.358 C 135.153 132.576,137.752 132.903,137.906 132.749 C 137.966 132.690,137.417 132.566,136.688 132.475 C 134.832 132.243,134.825 132.235,135.076 130.413 C 135.392 128.123,135.183 127.996,134.818 130.258 M130.891 131.391 C 130.891 131.666,130.622 132.160,130.292 132.490 C 129.571 133.211,129.841 133.299,130.601 132.591 C 131.061 132.163,131.369 130.891,131.013 130.891 C 130.946 130.891,130.891 131.116,130.891 131.391 M127.778 133.013 C 128.013 133.075,128.397 133.075,128.632 133.013 C 128.868 132.952,128.675 132.902,128.205 132.902 C 127.735 132.902,127.543 132.952,127.778 133.013 M119.644 134.875 C 113.287 138.747,113.298 138.738,113.349 139.683 C 113.380 140.260,113.388 140.256,113.484 139.616 C 113.541 139.244,113.826 138.793,114.119 138.614 C 114.412 138.435,116.081 137.387,117.827 136.286 C 120.662 134.496,121.092 134.298,121.856 134.428 C 129.154 135.679,129.345 135.735,129.580 136.671 C 129.798 137.537,128.820 144.486,128.411 144.978 C 127.141 146.509,121.782 150.472,121.288 150.245 C 120.535 149.900,115.891 146.085,115.783 145.722 C 115.450 144.606,113.727 140.404,113.640 140.491 C 113.308 140.823,115.628 145.965,116.453 146.727 C 118.245 148.381,120.920 150.428,121.473 150.567 C 121.970 150.692,125.827 147.799,128.635 145.195 C 128.920 144.932,129.891 139.147,129.963 137.286 C 130.020 135.827,129.309 135.447,125.144 134.713 C 120.669 133.924,121.233 133.908,119.644 134.875 M119.878 136.340 C 119.260 136.768,117.861 137.668,116.768 138.339 C 115.675 139.011,114.780 139.633,114.778 139.722 C 114.776 139.810,115.235 141.071,115.798 142.524 C 116.877 145.309,116.973 145.434,119.824 147.772 L 121.577 149.209 124.219 147.044 C 127.848 144.072,127.614 144.456,128.187 140.542 C 128.778 136.505,129.047 136.898,125.179 136.142 C 121.308 135.385,121.252 135.387,119.878 136.340 M124.821 136.360 C 126.519 136.676,128.013 136.999,128.140 137.078 C 128.283 137.166,128.174 138.558,127.862 140.670 L 127.350 144.117 124.544 146.418 C 121.193 149.165,121.791 149.111,119.186 146.900 L 117.044 145.083 116.092 142.566 C 115.569 141.181,115.140 139.960,115.140 139.850 C 115.140 139.620,121.126 135.789,121.490 135.787 C 121.624 135.786,123.123 136.044,124.821 136.360 M132.670 136.569 C 132.286 136.988,132.040 137.927,131.633 140.537 C 131.340 142.418,131.048 144.176,130.985 144.444 C 130.795 145.252,135.546 152.483,136.329 152.578 C 136.888 152.646,142.730 150.463,142.529 150.262 C 142.430 150.163,139.806 151.139,138.217 151.867 C 136.395 152.702,136.029 152.587,134.967 150.850 C 134.455 150.013,133.387 148.334,132.594 147.120 L 131.152 144.911 131.853 140.906 C 132.769 135.674,132.368 135.938,138.198 136.715 L 141.476 137.152 142.594 138.372 C 147.907 144.170,147.809 143.823,145.105 147.249 C 144.096 148.527,143.164 149.710,143.034 149.878 C 142.904 150.046,142.860 150.183,142.937 150.183 C 143.437 150.183,147.497 144.653,147.497 143.972 C 147.497 143.421,141.885 137.004,141.285 136.870 C 140.472 136.687,134.662 136.020,133.886 136.020 C 133.460 136.020,132.972 136.240,132.670 136.569 M133.676 137.523 C 133.591 137.661,133.259 139.322,132.939 141.215 L 132.356 144.657 134.127 147.421 C 135.101 148.941,136.077 150.423,136.296 150.714 L 136.694 151.243 139.481 150.089 L 142.268 148.935 143.967 146.839 C 144.901 145.687,145.751 144.599,145.855 144.422 C 145.980 144.208,145.316 143.259,143.870 141.586 C 140.795 138.029,141.074 138.209,138.044 137.831 C 136.595 137.649,135.054 137.450,134.620 137.387 C 134.186 137.324,133.761 137.385,133.676 137.523 M137.263 137.982 C 138.392 138.120,139.669 138.289,140.100 138.357 C 140.873 138.478,145.543 143.477,145.543 144.184 C 145.543 144.330,144.787 145.389,143.863 146.537 C 142.109 148.717,141.764 148.946,138.037 150.405 L 136.758 150.906 135.242 148.652 C 134.408 147.412,133.493 145.990,133.209 145.490 L 132.693 144.583 133.232 141.217 C 133.529 139.366,133.783 137.824,133.797 137.790 C 133.850 137.660,135.297 137.740,137.263 137.982 M271.116 157.446 L 271.062 161.168 256.838 161.231 L 242.613 161.294 242.613 168.864 L 242.613 176.435 251.099 176.499 L 259.585 176.563 259.585 180.342 L 259.585 184.121 251.099 184.185 L 242.613 184.249 242.613 192.063 L 242.613 199.878 256.838 199.941 L 271.062 200.004 271.062 203.786 L 271.062 207.567 251.099 207.632 L 231.136 207.697 251.160 207.694 L 271.184 207.692 271.184 203.785 L 271.184 199.878 256.960 199.815 L 242.735 199.752 242.735 192.065 L 242.735 184.378 251.221 184.313 L 259.707 184.249 259.774 180.281 L 259.841 176.313 251.288 176.313 L 242.735 176.313 242.735 168.864 L 242.735 161.416 256.906 161.416 C 268.286 161.416,271.102 161.354,271.199 161.100 C 271.266 160.926,271.287 159.195,271.245 157.254 L 271.170 153.724 271.116 157.446 M318.306 154.884 C 318.242 155.052,318.218 167.002,318.252 181.441 L 318.315 207.692 318.437 181.136 C 318.504 166.529,318.528 154.579,318.491 154.579 C 318.453 154.579,318.369 154.716,318.306 154.884 M346.619 158.364 C 346.619 160.513,346.657 161.359,346.702 160.245 C 346.747 159.130,346.747 157.372,346.701 156.338 C 346.656 155.303,346.619 156.215,346.619 158.364 M358.058 181.013 L 357.998 207.570 352.506 207.570 L 347.013 207.570 346.946 196.520 L 346.879 185.470 346.883 196.581 L 346.886 207.692 352.448 207.758 C 356.765 207.809,358.036 207.754,358.127 207.514 C 358.192 207.343,358.217 195.336,358.181 180.830 L 358.117 154.457 358.058 181.013 M279.804 165.690 C 279.764 167.772,279.814 169.476,279.915 169.475 C 280.015 169.475,280.098 167.772,280.098 165.690 C 280.098 160.793,279.899 160.793,279.804 165.690 M335.386 165.812 C 335.386 168.028,335.423 168.935,335.469 167.827 C 335.514 166.719,335.514 164.905,335.469 163.797 C 335.423 162.689,335.386 163.596,335.386 165.812 M297.291 181.319 C 297.291 183.468,297.328 184.314,297.374 183.200 C 297.419 182.085,297.419 180.327,297.373 179.292 C 297.327 178.258,297.290 179.170,297.291 181.319 M329.973 196.271 L 329.915 207.561 324.237 207.631 L 318.559 207.702 324.245 207.758 C 328.610 207.801,329.957 207.744,330.047 207.509 C 330.111 207.341,330.134 202.204,330.098 196.093 L 330.032 184.982 329.973 196.271 M302.865 192.486 L 302.808 199.747 297.253 199.817 L 291.697 199.888 297.260 199.944 C 301.556 199.987,302.851 199.930,302.942 199.692 C 303.007 199.522,303.029 196.198,302.991 192.305 L 302.923 185.226 302.865 192.486 M287.372 192.367 C 288.217 192.414,289.536 192.414,290.303 192.366 C 291.070 192.317,290.379 192.278,288.767 192.279 C 287.155 192.279,286.528 192.319,287.372 192.367 M336.691 192.611 C 337.531 192.658,338.904 192.658,339.744 192.611 C 340.583 192.563,339.896 192.524,338.217 192.524 C 336.538 192.524,335.852 192.563,336.691 192.611 M292.997 207.753 C 296.935 207.791,303.308 207.791,307.160 207.753 C 311.012 207.715,307.790 207.685,300.000 207.685 C 292.210 207.685,289.059 207.716,292.997 207.753 M169.902 232.658 C 168.363 232.780,168.411 233.211,169.963 233.211 C 170.886 233.211,171.184 233.122,171.184 232.845 C 171.184 232.643,171.157 232.498,171.123 232.523 C 171.090 232.547,170.540 232.608,169.902 232.658 M167.033 232.967 C 167.033 233.101,167.363 233.211,167.766 233.211 C 168.168 233.211,168.498 233.101,168.498 232.967 C 168.498 232.833,168.168 232.723,167.766 232.723 C 167.363 232.723,167.033 232.833,167.033 232.967 " stroke="none" fill="#3a5cc3" fill-rule="evenodd"></path></g></svg>