<svg width="272" height="19" viewBox="0 0 272 19" fill="none" xmlns="http://www.w3.org/2000/svg">
<path d="M5.06856 4.44V7.848H10.5646V11.016H5.06856V14.712H11.2846V18H0.964563V1.152H11.2846V4.44H5.06856ZM26.7889 6.576C26.7889 7.552 26.5649 8.448 26.1169 9.264C25.6689 10.064 24.9809 10.712 24.0529 11.208C23.1249 11.704 21.9729 11.952 20.5969 11.952H18.0529V18H13.9489V1.152H20.5969C21.9409 1.152 23.0769 1.384 24.0049 1.848C24.9329 2.312 25.6289 2.952 26.0929 3.768C26.5569 4.584 26.7889 5.52 26.7889 6.576ZM20.2849 8.688C21.0689 8.688 21.6529 8.504 22.0369 8.136C22.4209 7.768 22.6129 7.248 22.6129 6.576C22.6129 5.904 22.4209 5.384 22.0369 5.016C21.6529 4.648 21.0689 4.464 20.2849 4.464H18.0529V8.688H20.2849ZM33.0295 1.152V18H28.9255V1.152H33.0295ZM35.3076 9.552C35.3076 7.888 35.6676 6.408 36.3876 5.112C37.1076 3.8 38.1076 2.784 39.3876 2.064C40.6836 1.328 42.1476 0.959999 43.7796 0.959999C45.7796 0.959999 47.4916 1.488 48.9156 2.544C50.3396 3.6 51.2916 5.04 51.7716 6.864H47.2596C46.9236 6.16 46.4436 5.624 45.8196 5.256C45.2116 4.888 44.5156 4.704 43.7316 4.704C42.4676 4.704 41.4436 5.144 40.6596 6.024C39.8756 6.904 39.4836 8.08 39.4836 9.552C39.4836 11.024 39.8756 12.2 40.6596 13.08C41.4436 13.96 42.4676 14.4 43.7316 14.4C44.5156 14.4 45.2116 14.216 45.8196 13.848C46.4436 13.48 46.9236 12.944 47.2596 12.24H51.7716C51.2916 14.064 50.3396 15.504 48.9156 16.56C47.4916 17.6 45.7796 18.12 43.7796 18.12C42.1476 18.12 40.6836 17.76 39.3876 17.04C38.1076 16.304 37.1076 15.288 36.3876 13.992C35.6676 12.696 35.3076 11.216 35.3076 9.552ZM70.5548 6.48C70.2508 5.92 69.8108 5.496 69.2348 5.208C68.6748 4.904 68.0108 4.752 67.2428 4.752C65.9148 4.752 64.8508 5.192 64.0508 6.072C63.2508 6.936 62.8508 8.096 62.8508 9.552C62.8508 11.104 63.2668 12.32 64.0988 13.2C64.9468 14.064 66.1068 14.496 67.5788 14.496C68.5868 14.496 69.4348 14.24 70.1228 13.728C70.8268 13.216 71.3388 12.48 71.6588 11.52H66.4508V8.496H75.3788V12.312C75.0748 13.336 74.5548 14.288 73.8188 15.168C73.0988 16.048 72.1788 16.76 71.0588 17.304C69.9388 17.848 68.6748 18.12 67.2668 18.12C65.6028 18.12 64.1148 17.76 62.8028 17.04C61.5068 16.304 60.4908 15.288 59.7548 13.992C59.0348 12.696 58.6748 11.216 58.6748 9.552C58.6748 7.888 59.0348 6.408 59.7548 5.112C60.4908 3.8 61.5068 2.784 62.8028 2.064C64.0988 1.328 65.5788 0.959999 67.2428 0.959999C69.2588 0.959999 70.9548 1.448 72.3308 2.424C73.7228 3.4 74.6428 4.752 75.0908 6.48H70.5548ZM88.1401 15.024H81.8521L80.8441 18H76.5481L82.6441 1.152H87.3961L93.4921 18H89.1481L88.1401 15.024ZM87.0841 11.856L84.9961 5.688L82.9321 11.856H87.0841ZM114.427 1.152V18H110.323V7.896L106.555 18H103.243L99.4514 7.872V18H95.3474V1.152H100.195L104.923 12.816L109.603 1.152H114.427ZM121.483 4.44V7.848H126.979V11.016H121.483V14.712H127.699V18H117.379V1.152H127.699V4.44H121.483ZM138.955 18L135.451 11.64H134.467V18H130.363V1.152H137.251C138.579 1.152 139.707 1.384 140.635 1.848C141.579 2.312 142.283 2.952 142.747 3.768C143.211 4.568 143.443 5.464 143.443 6.456C143.443 7.576 143.123 8.576 142.483 9.456C141.859 10.336 140.931 10.96 139.699 11.328L143.587 18H138.955ZM134.467 8.736H137.011C137.763 8.736 138.323 8.552 138.691 8.184C139.075 7.816 139.267 7.296 139.267 6.624C139.267 5.984 139.075 5.48 138.691 5.112C138.323 4.744 137.763 4.56 137.011 4.56H134.467V8.736ZM170.185 1.152V18H166.081V7.896L162.313 18H159.001L155.209 7.872V18H151.105V1.152H155.953L160.681 12.816L165.361 1.152H170.185ZM181.104 18.168C179.52 18.168 178.064 17.8 176.736 17.064C175.424 16.328 174.376 15.304 173.592 13.992C172.824 12.664 172.44 11.176 172.44 9.528C172.44 7.88 172.824 6.4 173.592 5.088C174.376 3.776 175.424 2.752 176.736 2.016C178.064 1.28 179.52 0.912 181.104 0.912C182.688 0.912 184.136 1.28 185.448 2.016C186.776 2.752 187.816 3.776 188.568 5.088C189.336 6.4 189.72 7.88 189.72 9.528C189.72 11.176 189.336 12.664 188.568 13.992C187.8 15.304 186.76 16.328 185.448 17.064C184.136 17.8 182.688 18.168 181.104 18.168ZM181.104 14.424C182.448 14.424 183.52 13.976 184.32 13.08C185.136 12.184 185.544 11 185.544 9.528C185.544 8.04 185.136 6.856 184.32 5.976C183.52 5.08 182.448 4.632 181.104 4.632C179.744 4.632 178.656 5.072 177.84 5.952C177.04 6.832 176.64 8.024 176.64 9.528C176.64 11.016 177.04 12.208 177.84 13.104C178.656 13.984 179.744 14.424 181.104 14.424ZM211.084 1.152V18H206.98V7.896L203.212 18H199.9L196.108 7.872V18H192.004V1.152H196.852L201.58 12.816L206.26 1.152H211.084ZM218.139 4.44V7.848H223.635V11.016H218.139V14.712H224.355V18H214.035V1.152H224.355V4.44H218.139ZM242.091 18H237.987L231.123 7.608V18H227.019V1.152H231.123L237.987 11.592V1.152H242.091V18ZM257.186 1.152V4.44H252.722V18H248.618V4.44H244.154V1.152H257.186ZM265.342 18.168C264.11 18.168 263.006 17.968 262.03 17.568C261.054 17.168 260.27 16.576 259.678 15.792C259.102 15.008 258.798 14.064 258.766 12.96H263.134C263.198 13.584 263.414 14.064 263.782 14.4C264.15 14.72 264.63 14.88 265.222 14.88C265.83 14.88 266.31 14.744 266.662 14.472C267.014 14.184 267.19 13.792 267.19 13.296C267.19 12.88 267.046 12.536 266.758 12.264C266.486 11.992 266.142 11.768 265.726 11.592C265.326 11.416 264.75 11.216 263.998 10.992C262.91 10.656 262.022 10.32 261.334 9.984C260.646 9.648 260.054 9.152 259.558 8.496C259.062 7.84 258.814 6.984 258.814 5.928C258.814 4.36 259.382 3.136 260.518 2.256C261.654 1.36 263.134 0.912 264.958 0.912C266.814 0.912 268.31 1.36 269.446 2.256C270.582 3.136 271.19 4.368 271.27 5.952H266.83C266.798 5.408 266.598 4.984 266.23 4.68C265.862 4.36 265.39 4.2 264.814 4.2C264.318 4.2 263.918 4.336 263.614 4.608C263.31 4.864 263.158 5.24 263.158 5.736C263.158 6.28 263.414 6.704 263.926 7.008C264.438 7.312 265.238 7.64 266.326 7.992C267.414 8.36 268.294 8.712 268.966 9.048C269.654 9.384 270.246 9.872 270.742 10.512C271.238 11.152 271.486 11.976 271.486 12.984C271.486 13.944 271.238 14.816 270.742 15.6C270.262 16.384 269.558 17.008 268.63 17.472C267.702 17.936 266.606 18.168 265.342 18.168Z" fill="white"/>
</svg>
