<svg width="272" height="19" viewBox="0 0 272 19" fill="none" xmlns="http://www.w3.org/2000/svg">
<path d="M1.49094 18C1.31494 18 1.17094 17.944 1.05894 17.832C0.946938 17.72 0.890938 17.576 0.890938 17.4V1.8C0.890938 1.624 0.946938 1.48 1.05894 1.368C1.17094 1.256 1.31494 1.2 1.49094 1.2H12.6989C12.8749 1.2 13.0189 1.256 13.1309 1.368C13.2429 1.48 13.2989 1.624 13.2989 1.8V4.056C13.2989 4.232 13.2429 4.376 13.1309 4.488C13.0189 4.6 12.8749 4.656 12.6989 4.656H5.04294V7.896H12.1709C12.3469 7.896 12.4909 7.96 12.6029 8.088C12.7149 8.2 12.7709 8.344 12.7709 8.52V10.608C12.7709 10.768 12.7149 10.912 12.6029 11.04C12.4909 11.152 12.3469 11.208 12.1709 11.208H5.04294V14.544H12.8909C13.0669 14.544 13.2109 14.6 13.3229 14.712C13.4349 14.824 13.4909 14.968 13.4909 15.144V17.4C13.4909 17.576 13.4349 17.72 13.3229 17.832C13.2109 17.944 13.0669 18 12.8909 18H1.49094ZM16.8191 18C16.6431 18 16.4991 17.944 16.3871 17.832C16.2751 17.72 16.2191 17.576 16.2191 17.4V1.8C16.2191 1.624 16.2751 1.48 16.3871 1.368C16.4991 1.256 16.6431 1.2 16.8191 1.2H23.5391C24.8671 1.2 26.0191 1.408 26.9951 1.824C27.9871 2.224 28.7551 2.832 29.2991 3.648C29.8591 4.464 30.1391 5.496 30.1391 6.744C30.1391 7.976 29.8591 8.992 29.2991 9.792C28.7551 10.592 27.9871 11.184 26.9951 11.568C26.0191 11.952 24.8671 12.144 23.5391 12.144H20.6831V17.4C20.6831 17.576 20.6191 17.72 20.4911 17.832C20.3791 17.944 20.2351 18 20.0591 18H16.8191ZM20.6111 8.832H23.4191C24.1071 8.832 24.6511 8.656 25.0511 8.304C25.4671 7.952 25.6751 7.416 25.6751 6.696C25.6751 6.088 25.4991 5.576 25.1471 5.16C24.7951 4.744 24.2191 4.536 23.4191 4.536H20.6111V8.832ZM33.0378 18C32.8618 18 32.7178 17.944 32.6058 17.832C32.4938 17.72 32.4378 17.576 32.4378 17.4V1.8C32.4378 1.624 32.4938 1.48 32.6058 1.368C32.7178 1.256 32.8618 1.2 33.0378 1.2H36.2538C36.4298 1.2 36.5738 1.256 36.6858 1.368C36.7978 1.48 36.8538 1.624 36.8538 1.8V17.4C36.8538 17.576 36.7978 17.72 36.6858 17.832C36.5738 17.944 36.4298 18 36.2538 18H33.0378ZM47.1071 18.24C45.5871 18.24 44.2831 17.992 43.1951 17.496C42.1231 17 41.2831 16.272 40.6751 15.312C40.0831 14.352 39.7551 13.16 39.6911 11.736C39.6751 11.08 39.6671 10.376 39.6671 9.624C39.6671 8.872 39.6751 8.152 39.6911 7.464C39.7551 6.072 40.0911 4.896 40.6991 3.936C41.3071 2.96 42.1551 2.224 43.2431 1.728C44.3311 1.216 45.6191 0.959999 47.1071 0.959999C48.1631 0.959999 49.1391 1.096 50.0351 1.368C50.9311 1.624 51.7151 2.008 52.3871 2.52C53.0591 3.016 53.5791 3.624 53.9471 4.344C54.3311 5.048 54.5311 5.848 54.5471 6.744C54.5631 6.888 54.5151 7.008 54.4031 7.104C54.3071 7.2 54.1871 7.248 54.0431 7.248H50.8031C50.5951 7.248 50.4351 7.208 50.3231 7.128C50.2111 7.032 50.1151 6.864 50.0351 6.624C49.8111 5.776 49.4431 5.2 48.9311 4.896C48.4351 4.576 47.8191 4.416 47.0831 4.416C46.2031 4.416 45.5071 4.664 44.9951 5.16C44.4831 5.64 44.2031 6.448 44.1551 7.584C44.1071 8.896 44.1071 10.24 44.1551 11.616C44.2031 12.752 44.4831 13.568 44.9951 14.064C45.5071 14.544 46.2031 14.784 47.0831 14.784C47.8191 14.784 48.4431 14.624 48.9551 14.304C49.4671 13.984 49.8271 13.408 50.0351 12.576C50.0991 12.336 50.1871 12.176 50.2991 12.096C50.4271 12 50.5951 11.952 50.8031 11.952H54.0431C54.1871 11.952 54.3071 12 54.4031 12.096C54.5151 12.192 54.5631 12.312 54.5471 12.456C54.5311 13.352 54.3311 14.16 53.9471 14.88C53.5791 15.584 53.0591 16.192 52.3871 16.704C51.7151 17.2 50.9311 17.584 50.0351 17.856C49.1391 18.112 48.1631 18.24 47.1071 18.24ZM69.116 18.24C67.596 18.24 66.284 17.992 65.18 17.496C64.092 16.984 63.244 16.248 62.636 15.288C62.044 14.312 61.716 13.128 61.652 11.736C61.636 11.048 61.628 10.32 61.628 9.552C61.628 8.768 61.636 8.024 61.652 7.32C61.716 5.96 62.052 4.808 62.66 3.864C63.268 2.92 64.124 2.2 65.228 1.704C66.332 1.208 67.628 0.959999 69.116 0.959999C70.316 0.959999 71.38 1.112 72.308 1.416C73.236 1.704 74.012 2.096 74.636 2.592C75.276 3.088 75.756 3.632 76.076 4.224C76.412 4.816 76.588 5.4 76.604 5.976C76.62 6.12 76.572 6.24 76.46 6.336C76.364 6.432 76.244 6.48 76.1 6.48H72.596C72.42 6.48 72.284 6.456 72.188 6.408C72.108 6.344 72.036 6.256 71.972 6.144C71.86 5.904 71.692 5.656 71.468 5.4C71.26 5.128 70.964 4.896 70.58 4.704C70.212 4.512 69.724 4.416 69.116 4.416C68.204 4.416 67.484 4.656 66.956 5.136C66.444 5.616 66.164 6.384 66.116 7.44C66.068 8.816 66.068 10.208 66.116 11.616C66.164 12.736 66.46 13.544 67.004 14.04C67.548 14.536 68.268 14.784 69.164 14.784C69.772 14.784 70.308 14.68 70.772 14.472C71.252 14.264 71.628 13.944 71.9 13.512C72.172 13.064 72.308 12.496 72.308 11.808V11.352H70.052C69.876 11.352 69.724 11.296 69.596 11.184C69.484 11.056 69.428 10.904 69.428 10.728V8.952C69.428 8.776 69.484 8.632 69.596 8.52C69.724 8.392 69.876 8.328 70.052 8.328H76.1C76.276 8.328 76.42 8.392 76.532 8.52C76.644 8.632 76.7 8.776 76.7 8.952V11.688C76.7 13.064 76.388 14.24 75.764 15.216C75.14 16.192 74.252 16.944 73.1 17.472C71.964 17.984 70.636 18.24 69.116 18.24ZM78.1184 18C77.9904 18 77.8704 17.952 77.7584 17.856C77.6624 17.744 77.6144 17.624 77.6144 17.496C77.6144 17.416 77.6224 17.344 77.6384 17.28L83.2784 1.872C83.3264 1.696 83.4224 1.544 83.5664 1.416C83.7264 1.272 83.9424 1.2 84.2144 1.2H87.7664C88.0384 1.2 88.2464 1.272 88.3904 1.416C88.5504 1.544 88.6544 1.696 88.7024 1.872L94.3184 17.28C94.3504 17.344 94.3664 17.416 94.3664 17.496C94.3664 17.624 94.3104 17.744 94.1984 17.856C94.1024 17.952 93.9824 18 93.8384 18H90.8864C90.6464 18 90.4624 17.944 90.3344 17.832C90.2224 17.704 90.1504 17.592 90.1184 17.496L89.1824 15.048H82.7744L81.8624 17.496C81.8304 17.592 81.7584 17.704 81.6464 17.832C81.5344 17.944 81.3424 18 81.0704 18H78.1184ZM83.7584 11.592H88.2224L85.9664 5.256L83.7584 11.592ZM96.8581 18C96.6981 18 96.5541 17.944 96.4261 17.832C96.3141 17.72 96.2581 17.576 96.2581 17.4V1.8C96.2581 1.624 96.3141 1.48 96.4261 1.368C96.5541 1.256 96.6981 1.2 96.8581 1.2H99.4501C99.7061 1.2 99.8981 1.272 100.026 1.416C100.17 1.544 100.258 1.648 100.29 1.728L104.514 9.312L108.738 1.728C108.786 1.648 108.866 1.544 108.978 1.416C109.106 1.272 109.306 1.2 109.578 1.2H112.146C112.322 1.2 112.466 1.256 112.578 1.368C112.706 1.48 112.77 1.624 112.77 1.8V17.4C112.77 17.576 112.706 17.72 112.578 17.832C112.466 17.944 112.322 18 112.146 18H109.29C109.114 18 108.962 17.944 108.834 17.832C108.722 17.72 108.666 17.576 108.666 17.4V8.4L105.954 13.416C105.89 13.56 105.794 13.688 105.666 13.8C105.538 13.912 105.362 13.968 105.138 13.968H103.89C103.666 13.968 103.49 13.912 103.362 13.8C103.234 13.688 103.13 13.56 103.05 13.416L100.338 8.4V17.4C100.338 17.576 100.282 17.72 100.17 17.832C100.058 17.944 99.9141 18 99.7381 18H96.8581ZM116.71 18C116.534 18 116.39 17.944 116.278 17.832C116.166 17.72 116.11 17.576 116.11 17.4V1.8C116.11 1.624 116.166 1.48 116.278 1.368C116.39 1.256 116.534 1.2 116.71 1.2H127.918C128.094 1.2 128.238 1.256 128.35 1.368C128.462 1.48 128.518 1.624 128.518 1.8V4.056C128.518 4.232 128.462 4.376 128.35 4.488C128.238 4.6 128.094 4.656 127.918 4.656H120.262V7.896H127.39C127.566 7.896 127.71 7.96 127.822 8.088C127.934 8.2 127.99 8.344 127.99 8.52V10.608C127.99 10.768 127.934 10.912 127.822 11.04C127.71 11.152 127.566 11.208 127.39 11.208H120.262V14.544H128.11C128.286 14.544 128.43 14.6 128.542 14.712C128.654 14.824 128.71 14.968 128.71 15.144V17.4C128.71 17.576 128.654 17.72 128.542 17.832C128.43 17.944 128.286 18 128.11 18H116.71ZM132.038 18C131.862 18 131.718 17.944 131.606 17.832C131.494 17.72 131.438 17.576 131.438 17.4V1.8C131.438 1.624 131.494 1.48 131.606 1.368C131.718 1.256 131.862 1.2 132.038 1.2H138.566C140.63 1.2 142.254 1.68 143.438 2.64C144.638 3.584 145.238 4.928 145.238 6.672C145.238 7.808 144.958 8.768 144.398 9.552C143.854 10.336 143.134 10.928 142.238 11.328L145.55 17.232C145.598 17.328 145.622 17.416 145.622 17.496C145.622 17.624 145.566 17.744 145.454 17.856C145.358 17.952 145.238 18 145.094 18H141.926C141.622 18 141.398 17.928 141.254 17.784C141.11 17.624 141.006 17.48 140.942 17.352L138.206 12.072H135.734V17.4C135.734 17.576 135.678 17.72 135.566 17.832C135.454 17.944 135.31 18 135.134 18H132.038ZM135.734 8.688H138.518C139.27 8.688 139.83 8.504 140.198 8.136C140.582 7.768 140.774 7.264 140.774 6.624C140.774 6 140.59 5.496 140.222 5.112C139.87 4.728 139.302 4.536 138.518 4.536H135.734V8.688ZM153.741 18C153.581 18 153.437 17.944 153.309 17.832C153.197 17.72 153.141 17.576 153.141 17.4V1.8C153.141 1.624 153.197 1.48 153.309 1.368C153.437 1.256 153.581 1.2 153.741 1.2H156.333C156.589 1.2 156.781 1.272 156.909 1.416C157.053 1.544 157.141 1.648 157.173 1.728L161.397 9.312L165.621 1.728C165.669 1.648 165.749 1.544 165.861 1.416C165.989 1.272 166.189 1.2 166.461 1.2H169.029C169.205 1.2 169.349 1.256 169.461 1.368C169.589 1.48 169.653 1.624 169.653 1.8V17.4C169.653 17.576 169.589 17.72 169.461 17.832C169.349 17.944 169.205 18 169.029 18H166.173C165.997 18 165.845 17.944 165.717 17.832C165.605 17.72 165.549 17.576 165.549 17.4V8.4L162.837 13.416C162.773 13.56 162.677 13.688 162.549 13.8C162.421 13.912 162.245 13.968 162.021 13.968H160.773C160.549 13.968 160.373 13.912 160.245 13.8C160.117 13.688 160.013 13.56 159.933 13.416L157.221 8.4V17.4C157.221 17.576 157.165 17.72 157.053 17.832C156.941 17.944 156.797 18 156.621 18H153.741ZM179.857 18.24C178.385 18.24 177.105 18 176.017 17.52C174.929 17.04 174.081 16.32 173.473 15.36C172.865 14.384 172.529 13.168 172.465 11.712C172.449 11.024 172.441 10.336 172.441 9.648C172.441 8.96 172.449 8.264 172.465 7.56C172.529 6.12 172.865 4.912 173.473 3.936C174.097 2.944 174.953 2.2 176.041 1.704C177.129 1.208 178.401 0.959999 179.857 0.959999C181.297 0.959999 182.561 1.208 183.648 1.704C184.753 2.2 185.617 2.944 186.241 3.936C186.865 4.912 187.201 6.12 187.249 7.56C187.281 8.264 187.297 8.96 187.297 9.648C187.297 10.336 187.281 11.024 187.249 11.712C187.185 13.168 186.849 14.384 186.241 15.36C185.633 16.32 184.785 17.04 183.697 17.52C182.609 18 181.329 18.24 179.857 18.24ZM179.857 14.784C180.705 14.784 181.393 14.528 181.921 14.016C182.465 13.504 182.753 12.688 182.785 11.568C182.817 10.864 182.833 10.2 182.833 9.576C182.833 8.952 182.817 8.304 182.785 7.632C182.753 6.88 182.609 6.272 182.353 5.808C182.113 5.328 181.777 4.976 181.345 4.752C180.913 4.528 180.417 4.416 179.857 4.416C179.313 4.416 178.825 4.528 178.393 4.752C177.961 4.976 177.617 5.328 177.361 5.808C177.105 6.272 176.961 6.88 176.929 7.632C176.913 8.304 176.905 8.952 176.905 9.576C176.905 10.2 176.913 10.864 176.929 11.568C176.977 12.688 177.265 13.504 177.793 14.016C178.321 14.528 179.009 14.784 179.857 14.784ZM190.678 18C190.518 18 190.374 17.944 190.246 17.832C190.134 17.72 190.078 17.576 190.078 17.4V1.8C190.078 1.624 190.134 1.48 190.246 1.368C190.374 1.256 190.518 1.2 190.678 1.2H193.27C193.526 1.2 193.718 1.272 193.846 1.416C193.99 1.544 194.078 1.648 194.11 1.728L198.334 9.312L202.558 1.728C202.606 1.648 202.686 1.544 202.798 1.416C202.926 1.272 203.126 1.2 203.398 1.2H205.966C206.142 1.2 206.286 1.256 206.398 1.368C206.526 1.48 206.59 1.624 206.59 1.8V17.4C206.59 17.576 206.526 17.72 206.398 17.832C206.286 17.944 206.142 18 205.966 18H203.11C202.934 18 202.782 17.944 202.654 17.832C202.542 17.72 202.486 17.576 202.486 17.4V8.4L199.774 13.416C199.71 13.56 199.614 13.688 199.486 13.8C199.358 13.912 199.182 13.968 198.958 13.968H197.71C197.486 13.968 197.31 13.912 197.182 13.8C197.054 13.688 196.95 13.56 196.87 13.416L194.158 8.4V17.4C194.158 17.576 194.102 17.72 193.99 17.832C193.878 17.944 193.734 18 193.558 18H190.678ZM210.53 18C210.354 18 210.21 17.944 210.098 17.832C209.986 17.72 209.93 17.576 209.93 17.4V1.8C209.93 1.624 209.986 1.48 210.098 1.368C210.21 1.256 210.354 1.2 210.53 1.2H221.738C221.914 1.2 222.058 1.256 222.17 1.368C222.282 1.48 222.338 1.624 222.338 1.8V4.056C222.338 4.232 222.282 4.376 222.17 4.488C222.058 4.6 221.914 4.656 221.738 4.656H214.082V7.896H221.21C221.386 7.896 221.53 7.96 221.642 8.088C221.754 8.2 221.81 8.344 221.81 8.52V10.608C221.81 10.768 221.754 10.912 221.642 11.04C221.53 11.152 221.386 11.208 221.21 11.208H214.082V14.544H221.93C222.106 14.544 222.25 14.6 222.362 14.712C222.474 14.824 222.53 14.968 222.53 15.144V17.4C222.53 17.576 222.474 17.72 222.362 17.832C222.25 17.944 222.106 18 221.93 18H210.53ZM225.858 18C225.682 18 225.538 17.944 225.426 17.832C225.314 17.72 225.258 17.576 225.258 17.4V1.8C225.258 1.624 225.314 1.48 225.426 1.368C225.538 1.256 225.682 1.2 225.858 1.2H228.402C228.674 1.2 228.866 1.264 228.978 1.392C229.106 1.504 229.186 1.592 229.218 1.656L235.074 10.896V1.8C235.074 1.624 235.13 1.48 235.242 1.368C235.354 1.256 235.498 1.2 235.674 1.2H238.554C238.73 1.2 238.874 1.256 238.986 1.368C239.098 1.48 239.154 1.624 239.154 1.8V17.4C239.154 17.56 239.098 17.704 238.986 17.832C238.874 17.944 238.73 18 238.554 18H235.986C235.73 18 235.538 17.936 235.41 17.808C235.298 17.68 235.226 17.592 235.194 17.544L229.338 8.664V17.4C229.338 17.576 229.282 17.72 229.17 17.832C229.058 17.944 228.914 18 228.738 18H225.858ZM246.804 18C246.628 18 246.484 17.944 246.372 17.832C246.26 17.72 246.204 17.576 246.204 17.4V4.968H241.932C241.756 4.968 241.612 4.912 241.5 4.8C241.388 4.672 241.332 4.528 241.332 4.368V1.8C241.332 1.624 241.388 1.48 241.5 1.368C241.612 1.256 241.756 1.2 241.932 1.2H254.844C255.02 1.2 255.164 1.256 255.276 1.368C255.388 1.48 255.444 1.624 255.444 1.8V4.368C255.444 4.528 255.388 4.672 255.276 4.8C255.164 4.912 255.02 4.968 254.844 4.968H250.572V17.4C250.572 17.576 250.516 17.72 250.404 17.832C250.292 17.944 250.148 18 249.972 18H246.804ZM263.842 18.24C262.242 18.24 260.914 18.016 259.858 17.568C258.802 17.104 258.002 16.504 257.458 15.768C256.914 15.032 256.626 14.248 256.594 13.416C256.594 13.288 256.642 13.176 256.738 13.08C256.85 12.968 256.978 12.912 257.122 12.912H260.146C260.37 12.912 260.538 12.952 260.65 13.032C260.778 13.112 260.89 13.216 260.986 13.344C261.114 13.584 261.29 13.816 261.514 14.04C261.754 14.264 262.058 14.448 262.426 14.592C262.81 14.72 263.282 14.784 263.842 14.784C264.77 14.784 265.466 14.64 265.93 14.352C266.41 14.064 266.65 13.672 266.65 13.176C266.65 12.824 266.522 12.536 266.266 12.312C266.01 12.072 265.594 11.864 265.018 11.688C264.458 11.496 263.706 11.304 262.762 11.112C261.546 10.856 260.506 10.528 259.642 10.128C258.794 9.712 258.146 9.176 257.698 8.52C257.25 7.848 257.026 7.016 257.026 6.024C257.026 5.048 257.298 4.176 257.842 3.408C258.402 2.64 259.178 2.04 260.17 1.608C261.162 1.176 262.338 0.959999 263.698 0.959999C264.802 0.959999 265.77 1.104 266.602 1.392C267.45 1.68 268.162 2.064 268.738 2.544C269.314 3.024 269.746 3.536 270.034 4.08C270.338 4.608 270.498 5.128 270.514 5.64C270.514 5.768 270.466 5.888 270.37 6C270.274 6.096 270.154 6.144 270.01 6.144H266.842C266.666 6.144 266.514 6.112 266.386 6.048C266.258 5.984 266.146 5.88 266.05 5.736C265.954 5.384 265.698 5.08 265.282 4.824C264.882 4.552 264.354 4.416 263.698 4.416C262.994 4.416 262.442 4.544 262.042 4.8C261.658 5.04 261.466 5.416 261.466 5.928C261.466 6.248 261.57 6.528 261.778 6.768C262.002 7.008 262.362 7.216 262.858 7.392C263.37 7.568 264.066 7.752 264.946 7.944C266.402 8.216 267.578 8.56 268.474 8.976C269.37 9.376 270.026 9.904 270.442 10.56C270.858 11.2 271.066 12.008 271.066 12.984C271.066 14.072 270.754 15.016 270.13 15.816C269.522 16.6 268.674 17.2 267.586 17.616C266.498 18.032 265.25 18.24 263.842 18.24Z" fill="black"/>
</svg>
